<mxfile host="app.diagrams.net" modified="2024-03-15T19:25:22.540Z" agent="Mozilla/5.0 (Macintosh; Intel Mac OS X 10_15_7) AppleWebKit/537.36 (KHTML, like Gecko) Chrome/122.0.0.0 Safari/537.36" etag="_vrCtWgnzKSKx0qin04Z" version="24.0.7" type="device">
  <diagram name="Page-1" id="j4b56-QAGKokICRZK4UX">
    <mxGraphModel dx="2601" dy="1085" grid="1" gridSize="10" guides="1" tooltips="1" connect="1" arrows="1" fold="1" page="1" pageScale="1" pageWidth="850" pageHeight="1100" math="0" shadow="0">
      <root>
        <mxCell id="0" />
        <mxCell id="1" parent="0" />
        <mxCell id="3tbVtcQ5HgRzrrxqIutd-62" value="" style="rounded=0;whiteSpace=wrap;html=1;" vertex="1" parent="1">
          <mxGeometry x="-25" y="40" width="770" height="840" as="geometry" />
        </mxCell>
        <mxCell id="3tbVtcQ5HgRzrrxqIutd-5" value="" style="group" vertex="1" connectable="0" parent="1">
          <mxGeometry x="10" y="168" width="130" height="114" as="geometry" />
        </mxCell>
        <mxCell id="3tbVtcQ5HgRzrrxqIutd-3" value="" style="rounded=0;whiteSpace=wrap;html=1;" vertex="1" parent="3tbVtcQ5HgRzrrxqIutd-5">
          <mxGeometry width="130" height="114" as="geometry" />
        </mxCell>
        <mxCell id="3tbVtcQ5HgRzrrxqIutd-2" value="" style="shape=image;verticalLabelPosition=bottom;labelBackgroundColor=default;verticalAlign=top;aspect=fixed;imageAspect=0;image=data:image/svg+xml,PHN2ZyB4bWxucz0iaHR0cDovL3d3dy53My5vcmcvMjAwMC9zdmciIHZpZXdCb3g9IjAgMCA3MiA3MiI+PGRlZnM+PHN0eWxlPi5jbHMtMXtmaWxsOiM0NmM3OTU7fS5jbHMtMntmaWxsOiNmZmY7fTwvc3R5bGU+PC9kZWZzPjxnIGRhdGEtbmFtZT0iTGF5ZXIgMiIgaWQ9IkxheWVyXzIiPjxnIGRhdGEtbmFtZT0iTGF5ZXIgNSIgaWQ9IkxheWVyXzUiPjxjaXJjbGUgcj0iMzYiIGN5PSIzNiIgY3g9IjM2IiBjbGFzcz0iY2xzLTEiLz48cGF0aCBkPSJNNDAuOTIsNi4zMmgwbS0uMTMsMCwxLjQ1LDcuNjEuMTYuODUuODIuMjkuMjcuMDlhMTUuMTIsMTUuMTIsMCwwLDEsMS40My41NGMuNDUuMi44OC40NSwxLjM0LjcxbC4yNS4xNC43NS40My43NS0uNDUsNi42Ni0zLjk0TDYwLDE4LjdsLTQuMzIsNS45MS0uNTMuNzIuMzkuODJBMjEuNjUsMjEuNjUsMCwwLDEsNTcsMjkuODJsLjI1Ljg3Ljg4LjIsNy4xMiwxLjU2LDAsOC4xM0w1Ny42Niw0MmwtLjg1LjE2LS4yOC44MSwwLC4xMWMtLjIuNTUtLjM4LDEuMDctLjYxLDEuNTdzLS41LDEtLjc5LDEuNTNMNTUsNDYuM2wtLjQxLjc1LjQzLjc0TDU5LDU0LjQ1bC02LjExLDUuMzZMNDcsNTUuNSw0Ni4yNiw1NWwtLjgxLjM5YTIxLjQ0LDIxLjQ0LDAsMCwxLTMuNjgsMS4zOWwtLjg2LjI1LS4yLjg4TDM5LjE0LDY1bC04LjEzLDAtMS40Ny03LjYyLS4xNi0uODQtLjgxLS4yOS0uMTQsMGMtLjU0LS4xOS0xLjA1LS4zNy0xLjU0LS41OXMtMS0uNDktMS40Ny0uNzdsLS4xMi0uMDctLjc1LS40MS0uNzQuNDQtNi42OSwzLjk0LTUuMzYtNi4xMSw0LjMyLTUuOTIuNTMtLjcyLS4zOS0uODFhMjIuMTIsMjIuMTIsMCwwLDEtMS40LTMuNjhsLS4yNC0uODctLjg4LS4xOUw2LjU3LDM4LjkybDAtOC4xMyw3LjU5LTEuNDYuODQtLjE2LjI5LS44MSwwLS4wOGMuMi0uNTYuMzktMS4xLjYyLTEuNjJzLjUtMSwuNzgtMS40OWwuMDUtLjEuNDItLjc1LS40NC0uNzRMMTIuOCwxNi45Mmw2LjExLTUuMzYsNS45LDQuMzEuNzIuNTMuODEtLjM5QTIyLjA4LDIyLjA4LDAsMCwxLDMwLDE0LjYybC44Ny0uMjUuMTktLjg4LDEuNTgtNy4xNCw4LjEzLDBtLjEzLTEuNWgwbC04LjMzLDBoMGExLjM3LDEuMzcsMCwwLDAtMS4zNCwxLjA2bC0xLjYsNy4yNmEyMy44OSwyMy44OSwwLDAsMC0zLjkzLDEuNDlsLTYtNC4zOGExLjM4LDEuMzgsMCwwLDAtLjgtLjI1LDEuMzksMS4zOSwwLDAsMC0uOTIuMzVsLTYuMjYsNS40OWExLjM5LDEuMzksMCwwLDAtLjI4LDEuNzJsNCw2Ljc1Yy0uMzEuNTYtLjYyLDEuMTEtLjg4LDEuNzFzLS40OSwxLjItLjcsMS44MUw2LjE1LDI5LjM0YTEuMzcsMS4zNywwLDAsMC0xLjEsMS4zNGwwLDguMzNhMS4zOCwxLjM4LDAsMCwwLDEuMDcsMS4zNUwxMy4zOCw0MmEyMy44OSwyMy44OSwwLDAsMCwxLjQ5LDMuOTNsLTQuMzksNmExLjM4LDEuMzgsMCwwLDAsLjEsMS43Mmw1LjQ5LDYuMjZhMS4zOSwxLjM5LDAsMCwwLDEsLjQ2LDEuNDUsMS40NSwwLDAsMCwuNjktLjE4bDYuNzgtNGMuNTYuMzEsMS4xMS42MiwxLjcuODhzMS4xOS40OCwxLjc5LjY5bDEuNSw3Ljc0YTEuMzcsMS4zNywwLDAsMCwxLjM0LDEuMWw4LjMzLDBoMGExLjM4LDEuMzgsMCwwLDAsMS4zNC0xLjA3bDEuNi03LjI2YTIzLjg5LDIzLjg5LDAsMCwwLDMuOTMtMS40OWw2LDQuMzhhMS4zOCwxLjM4LDAsMCwwLC44LjI1LDEuMzQsMS4zNCwwLDAsMCwuOTItLjM1bDYuMjYtNS40OWExLjQsMS40LDAsMCwwLC4yOC0xLjcybC00LTYuNzVjLjMxLS41Ny42Mi0xLjEzLjg5LTEuNzNzLjQ4LTEuMTguNjktMS43OUw2NS42NSw0MmExLjM3LDEuMzcsMCwwLDAsMS4xLTEuMzRsMC04LjMzQTEuMzcsMS4zNywwLDAsMCw2NS42NiwzMWwtNy4yNC0xLjU5YTIzLjg5LDIzLjg5LDAsMCwwLTEuNDktMy45M2w0LjM5LTZhMS4zOCwxLjM4LDAsMCwwLS4xLTEuNzJsLTUuNDktNi4yNmExLjM5LDEuMzksMCwwLDAtMS0uNDYsMS40MiwxLjQyLDAsMCwwLS42OS4xOGwtNi43Niw0Yy0uNTYtLjMxLTEuMTEtLjY0LTEuNzItLjkxYTE5LjIsMTkuMiwwLDAsMC0xLjgyLS42OEw0Mi4yNCw1LjkyYTEuMzcsMS4zNywwLDAsMC0uODQtMWgwYTEuMzIsMS4zMiwwLDAsMC0uNDgtLjA5WiIgY2xhc3M9ImNscy0yIi8+PHBhdGggZD0iTTMxLjIyLDM0LjY0cy0xLjE4LjY4Ljg0LjkyYTE3LjU0LDE3LjU0LDAsMCwwLDYuNDEtLjI4LDExLjEzLDExLjEzLDAsMCwwLDEuNy44NGMtNi4wNSwyLjU5LTEzLjctLjE1LTktMS40OCIgY2xhc3M9ImNscy0yIi8+PHBhdGggZD0iTTMwLjQ4LDMxLjI1cy0xLjMyLDEsLjcsMS4xOWEyNS4xOCwyNS4xOCwwLDAsMCw4LjI2LS4zOSwzLjY5LDMuNjksMCwwLDAsMS4yOC43N0MzMy40LDM1LDI1LjI1LDMzLDMwLjQ4LDMxLjI1IiBjbGFzcz0iY2xzLTIiLz48cGF0aCBkPSJNMzYuNzIsMjUuNTFjMS40OSwxLjcyLS4zOSwzLjI2LS4zOSwzLjI2czMuNzgtMS45NSwyLTQuNEMzNi43NSwyMi4wOCwzNS41LDIxLDQyLjI1LDE3YzAsMC0xMC41OSwyLjY0LTUuNTMsOC40NyIgY2xhc3M9ImNscy0yIi8+PHBhdGggZD0iTTQ0LjcyLDM3LjE0cy44OC43Mi0xLDEuMjhjLTMuNDksMS4wNi0xNC41NCwxLjM4LTE3LjYxLDAtMS4xMS0uNDgsMS0xLjE1LDEuNjEtMS4yOGE0LjA3LDQuMDcsMCwwLDEsMS4wNy0uMTJjLTEuMjMtLjg3LTcuOTMsMS42OS0zLjQsMi40MywxMi4zNCwyLDIyLjQ5LS45MSwxOS4yOS0yLjM1IiBjbGFzcz0iY2xzLTIiLz48cGF0aCBkPSJNMzEuNzksMjcuNzRzLTUuNjIsMS4zNC0yLDEuODJhNDEuNTYsNDEuNTYsMCwwLDAsNy40My0uMDhjMi4zMy0uMTksNC42Ny0uNjEsNC42Ny0uNjFhOS44LDkuOCwwLDAsMC0xLjQyLjc2Yy01LjcsMS41LTE2LjczLjgtMTMuNTYtLjc0YTEwLjc3LDEwLjc3LDAsMCwxLDQuODctMS4xNSIgY2xhc3M9ImNscy0yIi8+PHBhdGggZD0iTTQxLjg3LDMzLjM4YzUuOC0zLDMuMTItNS45MSwxLjI1LTUuNTJhMy4zNywzLjM3LDAsMCwwLS42Ni4xOCwxLjA4LDEuMDgsMCwwLDEsLjQ5LS4zOWMzLjcxLTEuMyw2LjU1LDMuODQtMS4xOSw1Ljg4YS40My40MywwLDAsMCwuMTEtLjE1IiBjbGFzcz0iY2xzLTIiLz48cGF0aCBkPSJNMzguMzcsMTAuNzJzMy4yMiwzLjIyLTMsOC4xNmMtNSw0LTEuMTUsNi4yMywwLDguODEtMi45My0yLjY1LTUuMDktNS0zLjY0LTcuMTQsMi4xMi0zLjE4LDgtNC43Miw2LjY4LTkuODMiIGNsYXNzPSJjbHMtMiIvPjxwYXRoIGQ9Ik0zMi4zNiw0MS41NWM1LjU3LjM1LDE0LjEyLS4yLDE0LjMyLTIuODMsMCwwLS4zOSwxLTQuNiwxLjc5QTQ1LjY4LDQ1LjY4LDAsMCwxLDI4LDQwLjcycy43MS41OSw0LjM3LjgzIiBjbGFzcz0iY2xzLTIiLz48cGF0aCBkPSJNMjguNDgsNTAuNzFhMy43MywzLjczLDAsMCwxLS4xLjkzLDEuNzgsMS43OCwwLDAsMS0uMzIuNzEsMS41MiwxLjUyLDAsMCwxLS42MS40NCwyLjUyLDIuNTIsMCwwLDEtLjkzLjE1bC0uMzUsMC0uMzEtLjA3LS4yNS0uMDlhLjMzLjMzLDAsMCwxLS4xNC0uMDlsLS4wNi0uMDdhLjM2LjM2LDAsMCwxLDAtLjExLjc5Ljc5LDAsMCwxLDAtLjE3LDEuODUsMS44NSwwLDAsMSwwLS4yNWMwLS4xMywwLS4yNSwwLS4zNGEuNjkuNjksMCwwLDEsMC0uMjIuMTcuMTcsMCwwLDEsLjA2LS4xMS4xMi4xMiwwLDAsMSwuMDksMCwuMjQuMjQsMCwwLDEsLjEzLDBsLjE1LjA4LjIxLjA4YTEuMTEsMS4xMSwwLDAsMCwuMjgsMCwuNzYuNzYsMCwwLDAsLjI3LDAsLjQzLjQzLDAsMCwwLC4yLS4xNS41OS41OSwwLDAsMCwuMTItLjI5LDIuMDUsMi4wNSwwLDAsMCwwLS40N1Y0NS40NGEuMTguMTgsMCwwLDEsMC0uMS4zNS4zNSwwLDAsMSwuMTItLjA3LDEuMTEsMS4xMSwwLDAsMSwuMjQtLjA1aC43NWwuMjMuMDVhLjI2LjI2LDAsMCwxLC4xMy4wNy4xMy4xMywwLDAsMSwwLC4xWiIgY2xhc3M9ImNscy0yIi8+PHBhdGggZD0iTTM0LjQ5LDUyLjY0YS4xNS4xNSwwLDAsMS0uMDYuMTMuMzguMzgsMCwwLDEtLjE5LjA3bC0uMzcsMC0uMzgsMGEuMy4zLDAsMCwxLS4xNy0uMDcuMTQuMTQsMCwwLDEsMC0uMTN2LS40MWEyLjQzLDIuNDMsMCwwLDEtLjc0LjU0LDIuMjQsMi4yNCwwLDAsMS0uOTEuMTksMi42NSwyLjY1LDAsMCwxLS43Ny0uMTEsMS43MywxLjczLDAsMCwxLS42LS4zMiwxLjUyLDEuNTIsMCwwLDEtLjQtLjUzLDEuODgsMS44OCwwLDAsMS0uMTQtLjc0LDEuNjUsMS42NSwwLDAsMSwuMTgtLjc5LDEuNDksMS40OSwwLDAsMSwuNTMtLjU2LDIuNjEsMi42MSwwLDAsMSwuODgtLjMzLDYuNDQsNi40NCwwLDAsMSwxLjIzLS4xSDMzdi0uMzJhMS44MSwxLjgxLDAsMCwwLDAtLjQzLjgzLjgzLDAsMCwwLS4xNi0uMzEuNzMuNzMsMCwwLDAtLjMxLS4xOCwxLjU4LDEuNTgsMCwwLDAtLjQ3LS4wNiwyLjE5LDIuMTksMCwwLDAtLjY2LjA5LDMsMywwLDAsMC0uNTEuMTgsMi4xMywyLjEzLDAsMCwwLS4zNy4xOC42NC42NCwwLDAsMS0uMjUuMDguMTUuMTUsMCwwLDEtLjExLDAsLjI1LjI1LDAsMCwxLS4wOC0uMTIuNDguNDgsMCwwLDEtLjA1LS4xOCwxLDEsMCwwLDEsMC0uMjUsMS4xMiwxLjEyLDAsMCwxLDAtLjI5LjQxLjQxLDAsMCwxLC4xMS0uMTksMSwxLDAsMCwxLC4yOS0uMTksNCw0LDAsMCwxLC40OC0uMTljLjE4LDAsLjM4LS4xLjYtLjE0YTMuNjMsMy42MywwLDAsMSwuNjctLjA2LDQsNCwwLDAsMSwxLC4xMiwxLjg5LDEuODksMCwwLDEsLjcyLjM3LDEuNTQsMS41NCwwLDAsMSwuNDEuNjUsMy4xNiwzLjE2LDAsMCwxLC4xMy45M1pNMzMsNTAuNGgtLjU2YTIuNjgsMi42OCwwLDAsMC0uNjEuMDYuOS45LDAsMCwwLS40MS4xNi41NS41NSwwLDAsMC0uMjMuMjUuNzQuNzQsMCwwLDAtLjA4LjM0LjY3LjY3LDAsMCwwLC4yMS41Mi44Ni44NiwwLDAsMCwuNTguMTksMS4xNCwxLjE0LDAsMCwwLC41Ny0uMTYsMi40NSwyLjQ1LDAsMCwwLC41My0uNDdaIiBjbGFzcz0iY2xzLTIiLz48cGF0aCBkPSJNNDAuNiw0Ny4zOWEuMTcuMTcsMCwwLDEsMCwuMDcuMjguMjgsMCwwLDEsMCwuMDkuNS41LDAsMCwxLDAsLjEyLDEsMSwwLDAsMSwwLC4xNEwzOSw1Mi41NGEuMzQuMzQsMCwwLDEtLjA4LjE2LjI2LjI2LDAsMCwxLS4xNi4xLDEuODIsMS44MiwwLDAsMS0uMzEuMDVoLS41MmwtLjUsMGExLjExLDEuMTEsMCwwLDEtLjMxLS4wNS4zMS4zMSwwLDAsMS0uMTYtLjA5LjQ4LjQ4LDAsMCwxLS4wOC0uMTZsLTEuNTctNC43My0uMDYtLjIxYTEuMDUsMS4wNSwwLDAsMSwwLS4xM3YtLjA4YS4xNy4xNywwLDAsMSwwLS4xLjIzLjIzLDAsMCwxLC4xMS0uMDcuNjguNjgsMCwwLDEsLjIzLDBsLjM2LDAsLjM5LDAsLjIzLDBhLjE4LjE4LDAsMCwxLC4xMi4wOC42Ny42NywwLDAsMSwuMDYuMTJsMS4xOSwzLjgzLDAsLjE1LDAtLjE1LDEuMTctMy44M2EuMzMuMzMsMCwwLDEsMC0uMTIuMjUuMjUsMCwwLDEsLjEyLS4wOGwuMjIsMCwuMzYsMCwuMzYsMGEuNTYuNTYsMCwwLDEsLjIxLDAsLjIzLjIzLDAsMCwxLC4xMS4wN0EuMTcuMTcsMCwwLDEsNDAuNiw0Ny4zOVoiIGNsYXNzPSJjbHMtMiIvPjxwYXRoIGQ9Ik00NS43NCw1Mi42NGEuMTUuMTUsMCwwLDEtLjA2LjEzLjM4LjM4LDAsMCwxLS4xOC4wN2wtLjM3LDAtLjM5LDBhLjM0LjM0LDAsMCwxLS4xNy0uMDcuMTcuMTcsMCwwLDEsMC0uMTN2LS40MWEyLjM5LDIuMzksMCwwLDEtLjczLjU0LDIuMjksMi4yOSwwLDAsMS0uOTIuMTksMi41OCwyLjU4LDAsMCwxLS43Ni0uMTEsMS42OSwxLjY5LDAsMCwxLS42MS0uMzIsMS4zOCwxLjM4LDAsMCwxLS4zOS0uNTMsMS43MiwxLjcyLDAsMCwxLS4xNC0uNzQsMS42NSwxLjY1LDAsMCwxLC4xOC0uNzksMS4zNSwxLjM1LDAsMCwxLC41My0uNTYsMi42MSwyLjYxLDAsMCwxLC44OC0uMzMsNi4zNyw2LjM3LDAsMCwxLDEuMjMtLjFoLjUxdi0uMzJhMS44MSwxLjgxLDAsMCwwLDAtLjQzLjg1Ljg1LDAsMCwwLS4xNy0uMzEuNjkuNjksMCwwLDAtLjMtLjE4LDEuNjUsMS42NSwwLDAsMC0uNDgtLjA2LDIuMTcsMi4xNywwLDAsMC0uNjUuMDksMi44NiwyLjg2LDAsMCwwLS41Mi4xOCwyLjU3LDIuNTcsMCwwLDAtLjM3LjE4LjYuNiwwLDAsMS0uMjQuMDguMTcuMTcsMCwwLDEtLjEyLDAsLjM2LjM2LDAsMCwxLS4wOC0uMTIuNzguNzgsMCwwLDEsMC0uMTgsMiwyLDAsMCwxLDAtLjI1LDEuMTIsMS4xMiwwLDAsMSwwLS4yOS41Mi41MiwwLDAsMSwuMTEtLjE5LDEuMzIsMS4zMiwwLDAsMSwuMjktLjE5Yy4xNC0uMDYuMy0uMTMuNDgtLjE5bC42LS4xNGEzLjcxLDMuNzEsMCwwLDEsLjY3LS4wNiw0LjEzLDQuMTMsMCwwLDEsMS4wNi4xMiwxLjc3LDEuNzcsMCwwLDEsLjcxLjM3LDEuMzcsMS4zNywwLDAsMSwuNDEuNjUsMi44NiwyLjg2LDAsMCwxLC4xMy45M1pNNDQuMyw1MC40aC0uNTdhMi42OCwyLjY4LDAsMCwwLS42MS4wNiwxLDEsMCwwLDAtLjQxLjE2LjY4LjY4LDAsMCwwLS4yMy4yNS43NC43NCwwLDAsMC0uMDcuMzQuNjcuNjcsMCwwLDAsLjIxLjUyLjg1Ljg1LDAsMCwwLC41Ny4xOSwxLjExLDEuMTEsMCwwLDAsLjU3LS4xNiwyLjI3LDIuMjcsMCwwLDAsLjU0LS40N1oiIGNsYXNzPSJjbHMtMiIvPjwvZz48L2c+PC9zdmc+;" vertex="1" parent="3tbVtcQ5HgRzrrxqIutd-5">
          <mxGeometry x="40" y="31" width="52" height="52" as="geometry" />
        </mxCell>
        <mxCell id="3tbVtcQ5HgRzrrxqIutd-4" value="Basic Java Publisher" style="text;html=1;align=center;verticalAlign=middle;whiteSpace=wrap;rounded=0;" vertex="1" parent="3tbVtcQ5HgRzrrxqIutd-5">
          <mxGeometry x="8" y="1" width="114" height="30" as="geometry" />
        </mxCell>
        <mxCell id="3tbVtcQ5HgRzrrxqIutd-6" value="" style="group" vertex="1" connectable="0" parent="1">
          <mxGeometry x="560" y="168" width="130" height="114" as="geometry" />
        </mxCell>
        <mxCell id="3tbVtcQ5HgRzrrxqIutd-7" value="" style="rounded=0;whiteSpace=wrap;html=1;" vertex="1" parent="3tbVtcQ5HgRzrrxqIutd-6">
          <mxGeometry width="130" height="114" as="geometry" />
        </mxCell>
        <mxCell id="3tbVtcQ5HgRzrrxqIutd-8" value="" style="shape=image;verticalLabelPosition=bottom;labelBackgroundColor=default;verticalAlign=top;aspect=fixed;imageAspect=0;image=data:image/svg+xml,PHN2ZyB4bWxucz0iaHR0cDovL3d3dy53My5vcmcvMjAwMC9zdmciIHZpZXdCb3g9IjAgMCA3MiA3MiI+PGRlZnM+PHN0eWxlPi5jbHMtMXtmaWxsOiM0NmM3OTU7fS5jbHMtMntmaWxsOiNmZmY7fTwvc3R5bGU+PC9kZWZzPjxnIGRhdGEtbmFtZT0iTGF5ZXIgMiIgaWQ9IkxheWVyXzIiPjxnIGRhdGEtbmFtZT0iTGF5ZXIgNSIgaWQ9IkxheWVyXzUiPjxjaXJjbGUgcj0iMzYiIGN5PSIzNiIgY3g9IjM2IiBjbGFzcz0iY2xzLTEiLz48cGF0aCBkPSJNNDAuOTIsNi4zMmgwbS0uMTMsMCwxLjQ1LDcuNjEuMTYuODUuODIuMjkuMjcuMDlhMTUuMTIsMTUuMTIsMCwwLDEsMS40My41NGMuNDUuMi44OC40NSwxLjM0LjcxbC4yNS4xNC43NS40My43NS0uNDUsNi42Ni0zLjk0TDYwLDE4LjdsLTQuMzIsNS45MS0uNTMuNzIuMzkuODJBMjEuNjUsMjEuNjUsMCwwLDEsNTcsMjkuODJsLjI1Ljg3Ljg4LjIsNy4xMiwxLjU2LDAsOC4xM0w1Ny42Niw0MmwtLjg1LjE2LS4yOC44MSwwLC4xMWMtLjIuNTUtLjM4LDEuMDctLjYxLDEuNTdzLS41LDEtLjc5LDEuNTNMNTUsNDYuM2wtLjQxLjc1LjQzLjc0TDU5LDU0LjQ1bC02LjExLDUuMzZMNDcsNTUuNSw0Ni4yNiw1NWwtLjgxLjM5YTIxLjQ0LDIxLjQ0LDAsMCwxLTMuNjgsMS4zOWwtLjg2LjI1LS4yLjg4TDM5LjE0LDY1bC04LjEzLDAtMS40Ny03LjYyLS4xNi0uODQtLjgxLS4yOS0uMTQsMGMtLjU0LS4xOS0xLjA1LS4zNy0xLjU0LS41OXMtMS0uNDktMS40Ny0uNzdsLS4xMi0uMDctLjc1LS40MS0uNzQuNDQtNi42OSwzLjk0LTUuMzYtNi4xMSw0LjMyLTUuOTIuNTMtLjcyLS4zOS0uODFhMjIuMTIsMjIuMTIsMCwwLDEtMS40LTMuNjhsLS4yNC0uODctLjg4LS4xOUw2LjU3LDM4LjkybDAtOC4xMyw3LjU5LTEuNDYuODQtLjE2LjI5LS44MSwwLS4wOGMuMi0uNTYuMzktMS4xLjYyLTEuNjJzLjUtMSwuNzgtMS40OWwuMDUtLjEuNDItLjc1LS40NC0uNzRMMTIuOCwxNi45Mmw2LjExLTUuMzYsNS45LDQuMzEuNzIuNTMuODEtLjM5QTIyLjA4LDIyLjA4LDAsMCwxLDMwLDE0LjYybC44Ny0uMjUuMTktLjg4LDEuNTgtNy4xNCw4LjEzLDBtLjEzLTEuNWgwbC04LjMzLDBoMGExLjM3LDEuMzcsMCwwLDAtMS4zNCwxLjA2bC0xLjYsNy4yNmEyMy44OSwyMy44OSwwLDAsMC0zLjkzLDEuNDlsLTYtNC4zOGExLjM4LDEuMzgsMCwwLDAtLjgtLjI1LDEuMzksMS4zOSwwLDAsMC0uOTIuMzVsLTYuMjYsNS40OWExLjM5LDEuMzksMCwwLDAtLjI4LDEuNzJsNCw2Ljc1Yy0uMzEuNTYtLjYyLDEuMTEtLjg4LDEuNzFzLS40OSwxLjItLjcsMS44MUw2LjE1LDI5LjM0YTEuMzcsMS4zNywwLDAsMC0xLjEsMS4zNGwwLDguMzNhMS4zOCwxLjM4LDAsMCwwLDEuMDcsMS4zNUwxMy4zOCw0MmEyMy44OSwyMy44OSwwLDAsMCwxLjQ5LDMuOTNsLTQuMzksNmExLjM4LDEuMzgsMCwwLDAsLjEsMS43Mmw1LjQ5LDYuMjZhMS4zOSwxLjM5LDAsMCwwLDEsLjQ2LDEuNDUsMS40NSwwLDAsMCwuNjktLjE4bDYuNzgtNGMuNTYuMzEsMS4xMS42MiwxLjcuODhzMS4xOS40OCwxLjc5LjY5bDEuNSw3Ljc0YTEuMzcsMS4zNywwLDAsMCwxLjM0LDEuMWw4LjMzLDBoMGExLjM4LDEuMzgsMCwwLDAsMS4zNC0xLjA3bDEuNi03LjI2YTIzLjg5LDIzLjg5LDAsMCwwLDMuOTMtMS40OWw2LDQuMzhhMS4zOCwxLjM4LDAsMCwwLC44LjI1LDEuMzQsMS4zNCwwLDAsMCwuOTItLjM1bDYuMjYtNS40OWExLjQsMS40LDAsMCwwLC4yOC0xLjcybC00LTYuNzVjLjMxLS41Ny42Mi0xLjEzLjg5LTEuNzNzLjQ4LTEuMTguNjktMS43OUw2NS42NSw0MmExLjM3LDEuMzcsMCwwLDAsMS4xLTEuMzRsMC04LjMzQTEuMzcsMS4zNywwLDAsMCw2NS42NiwzMWwtNy4yNC0xLjU5YTIzLjg5LDIzLjg5LDAsMCwwLTEuNDktMy45M2w0LjM5LTZhMS4zOCwxLjM4LDAsMCwwLS4xLTEuNzJsLTUuNDktNi4yNmExLjM5LDEuMzksMCwwLDAtMS0uNDYsMS40MiwxLjQyLDAsMCwwLS42OS4xOGwtNi43Niw0Yy0uNTYtLjMxLTEuMTEtLjY0LTEuNzItLjkxYTE5LjIsMTkuMiwwLDAsMC0xLjgyLS42OEw0Mi4yNCw1LjkyYTEuMzcsMS4zNywwLDAsMC0uODQtMWgwYTEuMzIsMS4zMiwwLDAsMC0uNDgtLjA5WiIgY2xhc3M9ImNscy0yIi8+PHBhdGggZD0iTTMxLjIyLDM0LjY0cy0xLjE4LjY4Ljg0LjkyYTE3LjU0LDE3LjU0LDAsMCwwLDYuNDEtLjI4LDExLjEzLDExLjEzLDAsMCwwLDEuNy44NGMtNi4wNSwyLjU5LTEzLjctLjE1LTktMS40OCIgY2xhc3M9ImNscy0yIi8+PHBhdGggZD0iTTMwLjQ4LDMxLjI1cy0xLjMyLDEsLjcsMS4xOWEyNS4xOCwyNS4xOCwwLDAsMCw4LjI2LS4zOSwzLjY5LDMuNjksMCwwLDAsMS4yOC43N0MzMy40LDM1LDI1LjI1LDMzLDMwLjQ4LDMxLjI1IiBjbGFzcz0iY2xzLTIiLz48cGF0aCBkPSJNMzYuNzIsMjUuNTFjMS40OSwxLjcyLS4zOSwzLjI2LS4zOSwzLjI2czMuNzgtMS45NSwyLTQuNEMzNi43NSwyMi4wOCwzNS41LDIxLDQyLjI1LDE3YzAsMC0xMC41OSwyLjY0LTUuNTMsOC40NyIgY2xhc3M9ImNscy0yIi8+PHBhdGggZD0iTTQ0LjcyLDM3LjE0cy44OC43Mi0xLDEuMjhjLTMuNDksMS4wNi0xNC41NCwxLjM4LTE3LjYxLDAtMS4xMS0uNDgsMS0xLjE1LDEuNjEtMS4yOGE0LjA3LDQuMDcsMCwwLDEsMS4wNy0uMTJjLTEuMjMtLjg3LTcuOTMsMS42OS0zLjQsMi40MywxMi4zNCwyLDIyLjQ5LS45MSwxOS4yOS0yLjM1IiBjbGFzcz0iY2xzLTIiLz48cGF0aCBkPSJNMzEuNzksMjcuNzRzLTUuNjIsMS4zNC0yLDEuODJhNDEuNTYsNDEuNTYsMCwwLDAsNy40My0uMDhjMi4zMy0uMTksNC42Ny0uNjEsNC42Ny0uNjFhOS44LDkuOCwwLDAsMC0xLjQyLjc2Yy01LjcsMS41LTE2LjczLjgtMTMuNTYtLjc0YTEwLjc3LDEwLjc3LDAsMCwxLDQuODctMS4xNSIgY2xhc3M9ImNscy0yIi8+PHBhdGggZD0iTTQxLjg3LDMzLjM4YzUuOC0zLDMuMTItNS45MSwxLjI1LTUuNTJhMy4zNywzLjM3LDAsMCwwLS42Ni4xOCwxLjA4LDEuMDgsMCwwLDEsLjQ5LS4zOWMzLjcxLTEuMyw2LjU1LDMuODQtMS4xOSw1Ljg4YS40My40MywwLDAsMCwuMTEtLjE1IiBjbGFzcz0iY2xzLTIiLz48cGF0aCBkPSJNMzguMzcsMTAuNzJzMy4yMiwzLjIyLTMsOC4xNmMtNSw0LTEuMTUsNi4yMywwLDguODEtMi45My0yLjY1LTUuMDktNS0zLjY0LTcuMTQsMi4xMi0zLjE4LDgtNC43Miw2LjY4LTkuODMiIGNsYXNzPSJjbHMtMiIvPjxwYXRoIGQ9Ik0zMi4zNiw0MS41NWM1LjU3LjM1LDE0LjEyLS4yLDE0LjMyLTIuODMsMCwwLS4zOSwxLTQuNiwxLjc5QTQ1LjY4LDQ1LjY4LDAsMCwxLDI4LDQwLjcycy43MS41OSw0LjM3LjgzIiBjbGFzcz0iY2xzLTIiLz48cGF0aCBkPSJNMjguNDgsNTAuNzFhMy43MywzLjczLDAsMCwxLS4xLjkzLDEuNzgsMS43OCwwLDAsMS0uMzIuNzEsMS41MiwxLjUyLDAsMCwxLS42MS40NCwyLjUyLDIuNTIsMCwwLDEtLjkzLjE1bC0uMzUsMC0uMzEtLjA3LS4yNS0uMDlhLjMzLjMzLDAsMCwxLS4xNC0uMDlsLS4wNi0uMDdhLjM2LjM2LDAsMCwxLDAtLjExLjc5Ljc5LDAsMCwxLDAtLjE3LDEuODUsMS44NSwwLDAsMSwwLS4yNWMwLS4xMywwLS4yNSwwLS4zNGEuNjkuNjksMCwwLDEsMC0uMjIuMTcuMTcsMCwwLDEsLjA2LS4xMS4xMi4xMiwwLDAsMSwuMDksMCwuMjQuMjQsMCwwLDEsLjEzLDBsLjE1LjA4LjIxLjA4YTEuMTEsMS4xMSwwLDAsMCwuMjgsMCwuNzYuNzYsMCwwLDAsLjI3LDAsLjQzLjQzLDAsMCwwLC4yLS4xNS41OS41OSwwLDAsMCwuMTItLjI5LDIuMDUsMi4wNSwwLDAsMCwwLS40N1Y0NS40NGEuMTguMTgsMCwwLDEsMC0uMS4zNS4zNSwwLDAsMSwuMTItLjA3LDEuMTEsMS4xMSwwLDAsMSwuMjQtLjA1aC43NWwuMjMuMDVhLjI2LjI2LDAsMCwxLC4xMy4wNy4xMy4xMywwLDAsMSwwLC4xWiIgY2xhc3M9ImNscy0yIi8+PHBhdGggZD0iTTM0LjQ5LDUyLjY0YS4xNS4xNSwwLDAsMS0uMDYuMTMuMzguMzgsMCwwLDEtLjE5LjA3bC0uMzcsMC0uMzgsMGEuMy4zLDAsMCwxLS4xNy0uMDcuMTQuMTQsMCwwLDEsMC0uMTN2LS40MWEyLjQzLDIuNDMsMCwwLDEtLjc0LjU0LDIuMjQsMi4yNCwwLDAsMS0uOTEuMTksMi42NSwyLjY1LDAsMCwxLS43Ny0uMTEsMS43MywxLjczLDAsMCwxLS42LS4zMiwxLjUyLDEuNTIsMCwwLDEtLjQtLjUzLDEuODgsMS44OCwwLDAsMS0uMTQtLjc0LDEuNjUsMS42NSwwLDAsMSwuMTgtLjc5LDEuNDksMS40OSwwLDAsMSwuNTMtLjU2LDIuNjEsMi42MSwwLDAsMSwuODgtLjMzLDYuNDQsNi40NCwwLDAsMSwxLjIzLS4xSDMzdi0uMzJhMS44MSwxLjgxLDAsMCwwLDAtLjQzLjgzLjgzLDAsMCwwLS4xNi0uMzEuNzMuNzMsMCwwLDAtLjMxLS4xOCwxLjU4LDEuNTgsMCwwLDAtLjQ3LS4wNiwyLjE5LDIuMTksMCwwLDAtLjY2LjA5LDMsMywwLDAsMC0uNTEuMTgsMi4xMywyLjEzLDAsMCwwLS4zNy4xOC42NC42NCwwLDAsMS0uMjUuMDguMTUuMTUsMCwwLDEtLjExLDAsLjI1LjI1LDAsMCwxLS4wOC0uMTIuNDguNDgsMCwwLDEtLjA1LS4xOCwxLDEsMCwwLDEsMC0uMjUsMS4xMiwxLjEyLDAsMCwxLDAtLjI5LjQxLjQxLDAsMCwxLC4xMS0uMTksMSwxLDAsMCwxLC4yOS0uMTksNCw0LDAsMCwxLC40OC0uMTljLjE4LDAsLjM4LS4xLjYtLjE0YTMuNjMsMy42MywwLDAsMSwuNjctLjA2LDQsNCwwLDAsMSwxLC4xMiwxLjg5LDEuODksMCwwLDEsLjcyLjM3LDEuNTQsMS41NCwwLDAsMSwuNDEuNjUsMy4xNiwzLjE2LDAsMCwxLC4xMy45M1pNMzMsNTAuNGgtLjU2YTIuNjgsMi42OCwwLDAsMC0uNjEuMDYuOS45LDAsMCwwLS40MS4xNi41NS41NSwwLDAsMC0uMjMuMjUuNzQuNzQsMCwwLDAtLjA4LjM0LjY3LjY3LDAsMCwwLC4yMS41Mi44Ni44NiwwLDAsMCwuNTguMTksMS4xNCwxLjE0LDAsMCwwLC41Ny0uMTYsMi40NSwyLjQ1LDAsMCwwLC41My0uNDdaIiBjbGFzcz0iY2xzLTIiLz48cGF0aCBkPSJNNDAuNiw0Ny4zOWEuMTcuMTcsMCwwLDEsMCwuMDcuMjguMjgsMCwwLDEsMCwuMDkuNS41LDAsMCwxLDAsLjEyLDEsMSwwLDAsMSwwLC4xNEwzOSw1Mi41NGEuMzQuMzQsMCwwLDEtLjA4LjE2LjI2LjI2LDAsMCwxLS4xNi4xLDEuODIsMS44MiwwLDAsMS0uMzEuMDVoLS41MmwtLjUsMGExLjExLDEuMTEsMCwwLDEtLjMxLS4wNS4zMS4zMSwwLDAsMS0uMTYtLjA5LjQ4LjQ4LDAsMCwxLS4wOC0uMTZsLTEuNTctNC43My0uMDYtLjIxYTEuMDUsMS4wNSwwLDAsMSwwLS4xM3YtLjA4YS4xNy4xNywwLDAsMSwwLS4xLjIzLjIzLDAsMCwxLC4xMS0uMDcuNjguNjgsMCwwLDEsLjIzLDBsLjM2LDAsLjM5LDAsLjIzLDBhLjE4LjE4LDAsMCwxLC4xMi4wOC42Ny42NywwLDAsMSwuMDYuMTJsMS4xOSwzLjgzLDAsLjE1LDAtLjE1LDEuMTctMy44M2EuMzMuMzMsMCwwLDEsMC0uMTIuMjUuMjUsMCwwLDEsLjEyLS4wOGwuMjIsMCwuMzYsMCwuMzYsMGEuNTYuNTYsMCwwLDEsLjIxLDAsLjIzLjIzLDAsMCwxLC4xMS4wN0EuMTcuMTcsMCwwLDEsNDAuNiw0Ny4zOVoiIGNsYXNzPSJjbHMtMiIvPjxwYXRoIGQ9Ik00NS43NCw1Mi42NGEuMTUuMTUsMCwwLDEtLjA2LjEzLjM4LjM4LDAsMCwxLS4xOC4wN2wtLjM3LDAtLjM5LDBhLjM0LjM0LDAsMCwxLS4xNy0uMDcuMTcuMTcsMCwwLDEsMC0uMTN2LS40MWEyLjM5LDIuMzksMCwwLDEtLjczLjU0LDIuMjksMi4yOSwwLDAsMS0uOTIuMTksMi41OCwyLjU4LDAsMCwxLS43Ni0uMTEsMS42OSwxLjY5LDAsMCwxLS42MS0uMzIsMS4zOCwxLjM4LDAsMCwxLS4zOS0uNTMsMS43MiwxLjcyLDAsMCwxLS4xNC0uNzQsMS42NSwxLjY1LDAsMCwxLC4xOC0uNzksMS4zNSwxLjM1LDAsMCwxLC41My0uNTYsMi42MSwyLjYxLDAsMCwxLC44OC0uMzMsNi4zNyw2LjM3LDAsMCwxLDEuMjMtLjFoLjUxdi0uMzJhMS44MSwxLjgxLDAsMCwwLDAtLjQzLjg1Ljg1LDAsMCwwLS4xNy0uMzEuNjkuNjksMCwwLDAtLjMtLjE4LDEuNjUsMS42NSwwLDAsMC0uNDgtLjA2LDIuMTcsMi4xNywwLDAsMC0uNjUuMDksMi44NiwyLjg2LDAsMCwwLS41Mi4xOCwyLjU3LDIuNTcsMCwwLDAtLjM3LjE4LjYuNiwwLDAsMS0uMjQuMDguMTcuMTcsMCwwLDEtLjEyLDAsLjM2LjM2LDAsMCwxLS4wOC0uMTIuNzguNzgsMCwwLDEsMC0uMTgsMiwyLDAsMCwxLDAtLjI1LDEuMTIsMS4xMiwwLDAsMSwwLS4yOS41Mi41MiwwLDAsMSwuMTEtLjE5LDEuMzIsMS4zMiwwLDAsMSwuMjktLjE5Yy4xNC0uMDYuMy0uMTMuNDgtLjE5bC42LS4xNGEzLjcxLDMuNzEsMCwwLDEsLjY3LS4wNiw0LjEzLDQuMTMsMCwwLDEsMS4wNi4xMiwxLjc3LDEuNzcsMCwwLDEsLjcxLjM3LDEuMzcsMS4zNywwLDAsMSwuNDEuNjUsMi44NiwyLjg2LDAsMCwxLC4xMy45M1pNNDQuMyw1MC40aC0uNTdhMi42OCwyLjY4LDAsMCwwLS42MS4wNiwxLDEsMCwwLDAtLjQxLjE2LjY4LjY4LDAsMCwwLS4yMy4yNS43NC43NCwwLDAsMC0uMDcuMzQuNjcuNjcsMCwwLDAsLjIxLjUyLjg1Ljg1LDAsMCwwLC41Ny4xOSwxLjExLDEuMTEsMCwwLDAsLjU3LS4xNiwyLjI3LDIuMjcsMCwwLDAsLjU0LS40N1oiIGNsYXNzPSJjbHMtMiIvPjwvZz48L2c+PC9zdmc+;" vertex="1" parent="3tbVtcQ5HgRzrrxqIutd-6">
          <mxGeometry x="40" y="31" width="52" height="52" as="geometry" />
        </mxCell>
        <mxCell id="3tbVtcQ5HgRzrrxqIutd-9" value="Basic Java Publisher" style="text;html=1;align=center;verticalAlign=middle;whiteSpace=wrap;rounded=0;" vertex="1" parent="3tbVtcQ5HgRzrrxqIutd-6">
          <mxGeometry x="9" width="114" height="30" as="geometry" />
        </mxCell>
        <mxCell id="3tbVtcQ5HgRzrrxqIutd-11" value="" style="group" vertex="1" connectable="0" parent="1">
          <mxGeometry x="240" y="70" width="240" height="310" as="geometry" />
        </mxCell>
        <mxCell id="3tbVtcQ5HgRzrrxqIutd-10" value="" style="rounded=1;whiteSpace=wrap;html=1;" vertex="1" parent="3tbVtcQ5HgRzrrxqIutd-11">
          <mxGeometry width="240" height="310" as="geometry" />
        </mxCell>
        <mxCell id="3tbVtcQ5HgRzrrxqIutd-1" value="" style="shape=image;verticalLabelPosition=bottom;verticalAlign=top;imageAspect=0;aspect=fixed;image=data:image/svg+xml,PHN2ZyB4bWxucz0iaHR0cDovL3d3dy53My5vcmcvMjAwMC9zdmciIHZpZXdCb3g9IjAgMCA3MiA3MiI+PGRlZnM+PHN0eWxlPi5jbHMtMXtmaWxsOiM0NmM3OTU7fS5jbHMtMntmaWxsOiNmZmY7fS5jbHMtM3tmaWxsOiMwMjAyMDI7fTwvc3R5bGU+PC9kZWZzPjxnIGRhdGEtbmFtZT0iTGF5ZXIgMiIgaWQ9IkxheWVyXzIiPjxnIGRhdGEtbmFtZT0iTGF5ZXIgNSIgaWQ9IkxheWVyXzUiPjxjaXJjbGUgcj0iMzYiIGN5PSIzNiIgY3g9IjM2IiBjbGFzcz0iY2xzLTEiLz48cGF0aCBkPSJNNjEuMTEsMjhINTMuOVYyMGE0LjUsNC41LDAsMSwwLTIuNi4wNlYyOEgzNy4xVjEyLjY5YTQuNSw0LjUsMCwxLDAtMi42LDBWMjhIMjAuNFYyMGE0LjUsNC41LDAsMSwwLTIuNiwwdjhIMTAuNDlBNC4zOCw0LjM4LDAsMCwwLDYuMSwzMi4zNHY5LjIyQTQuMzgsNC4zOCwwLDAsMCwxMC40OSw0NkgxNy44djUuNTZhNC41LDQuNSwwLDEsMCwyLjYsMFY0NkgzNC41VjU4LjgxYTQuNSw0LjUsMCwxLDAsMi42LDBWNDZINTEuM3Y1LjUzYTQuNSw0LjUsMCwxLDAsMi42LjA2VjQ2aDcuMjFhNC4zOSw0LjM5LDAsMCwwLDQuMzktNC4zOVYzMi4zNEE0LjM5LDQuMzksMCwwLDAsNjEuMTEsMjhaIiBjbGFzcz0iY2xzLTIiLz48cGF0aCBkPSJNMTUuNjUsMzguNGEyLjI2LDIuMjYsMCwwLDEtLjIsMSwxLjksMS45LDAsMCwxLS41Ni42OSwyLjU5LDIuNTksMCwwLDEtLjgxLjQyLDMuNjEsMy42MSwwLDAsMS0xLC4xNCwzLjQ4LDMuNDgsMCwwLDEtLjY3LS4wNiwzLjMzLDMuMzMsMCwwLDEtLjU1LS4xNSwyLjA2LDIuMDYsMCwwLDEtLjM5LS4xNywxLDEsMCwwLDEtLjIzLS4xNi4zOC4zOCwwLDAsMS0uMS0uMiwxLjg3LDEuODcsMCwwLDEsMC0uMzhjMC0uMTEsMC0uMiwwLS4yOGEuNi42LDAsMCwxLDAtLjE4LjE5LjE5LDAsMCwxLC4wNi0uMS4xNy4xNywwLDAsMSwuMSwwLC40My40MywwLDAsMSwuMjEuMDksMy40OCwzLjQ4LDAsMCwwLC4zNS4xOSwzLjE5LDMuMTksMCwwLDAsLjUxLjIsMi40LDIuNCwwLDAsMCwuNjkuMDksMS42LDEuNiwwLDAsMCwuNDYtLjA2LDEsMSwwLDAsMCwuMzUtLjE4LjY3LjY3LDAsMCwwLC4yMi0uMjguODcuODcsMCwwLDAsLjA3LS4zNy42NS42NSwwLDAsMC0uMTItLjQsMS4xLDEuMSwwLDAsMC0uMzQtLjMsNC4xMiw0LjEyLDAsMCwwLS40Ny0uMjVsLS41NC0uMjVhNC4xNCw0LjE0LDAsMCwxLS41NS0uMjksMi41LDIuNSwwLDAsMS0uNDctLjM5LDEuODIsMS44MiwwLDAsMS0uMzMtLjU0LDEuOSwxLjksMCwwLDEtLjEzLS43NSwxLjkzLDEuOTMsMCwwLDEsLjE5LS44OCwxLjY5LDEuNjksMCwwLDEsLjUtLjYyLDEuOTIsMS45MiwwLDAsMSwuNzQtLjM4LDMuMjYsMy4yNiwwLDAsMSwuOS0uMTIsMi44MSwyLjgxLDAsMCwxLC41LDAsMy40MSwzLjQxLDAsMCwxLC40Ni4xLDIuNzcsMi43NywwLDAsMSwuMzguMTQsMS4wNSwxLjA1LDAsMCwxLC4yMi4xNC4yOC4yOCwwLDAsMSwuMDcuMDkuNjIuNjIsMCwwLDEsMCwuMS42MS42MSwwLDAsMSwwLC4xNSwxLjcsMS43LDAsMCwxLDAsLjI0LDIsMiwwLDAsMSwwLC4yNi44NC44NCwwLDAsMSwwLC4xOC4yMy4yMywwLDAsMS0uMDUuMS4xNS4xNSwwLDAsMS0uMSwwLC40Mi40MiwwLDAsMS0uMTgtLjA3bC0uMzItLjE3YTMuMTYsMy4xNiwwLDAsMC0uNDQtLjE2LDEuODEsMS44MSwwLDAsMC0uNTQtLjA3LDEuMiwxLjIsMCwwLDAtLjQuMDYuOC44LDAsMCwwLS4yOS4xNS44MS44MSwwLDAsMC0uMTcuMjQuNzMuNzMsMCwwLDAtLjA2LjMuNzEuNzEsMCwwLDAsLjEzLjQsMS4yNiwxLjI2LDAsMCwwLC4zNC4zLDIuNjksMi42OSwwLDAsMCwuNDguMjRsLjU1LjI1Yy4xOC4wOS4zNy4xOC41NS4yOWEyLjUsMi41LDAsMCwxLC40Ny4zOSwxLjksMS45LDAsMCwxLC4zNC41NEExLjgzLDEuODMsMCwwLDEsMTUuNjUsMzguNFoiIGNsYXNzPSJjbHMtMyIvPjxwYXRoIGQ9Ik0yMS4yNSwzNC4xMWEyLDIsMCwwLDEsMCwuMjcuOC44LDAsMCwxLDAsLjE4LjIuMiwwLDAsMS0uMDYuMDkuMTIuMTIsMCwwLDEtLjA5LDBIMTkuM3Y1LjZhLjEzLjEzLDAsMCwxLDAsLjEuMzUuMzUsMCwwLDEtLjExLjA3bC0uMjIsMGgtLjY4bC0uMjIsMC0uMTItLjA3YS4xNy4xNywwLDAsMSwwLS4xdi01LjZIMTYuMTRhLjEuMSwwLDAsMS0uMDksMCwuMjIuMjIsMCwwLDEtLjA3LS4wOWMwLS4wNSwwLS4xMSwwLS4xOGEzLjY1LDMuNjUsMCwwLDEsMC0uNTQsMS4yNywxLjI3LDAsMCwxLDAtLjE4LjIuMiwwLDAsMSwuMDctLjEuMTIuMTIsMCwwLDEsLjA5LDBIMjFhLjE2LjE2LDAsMCwxLC4wOSwwLC4xOS4xOSwwLDAsMSwuMDYuMS42LjYsMCwwLDEsMCwuMThBMiwyLDAsMCwxLDIxLjI1LDM0LjExWiIgY2xhc3M9ImNscy0zIi8+PHBhdGggZD0iTTI2LjksNDBhMi4zMiwyLjMyLDAsMCwxLC4wOC4zLjIyLjIyLDAsMCwxLDAsLjE3LjM0LjM0LDAsMCwxLS4yMS4wN2gtLjg0YTEuMDcsMS4wNywwLDAsMS0uMjQsMCwuMTcuMTcsMCwwLDEtLjExLS4wNmwtLjA2LS4xMUwyNSwzOC45SDIyLjQxTDIyLDQwLjI2YS42Ny42NywwLDAsMS0uMDYuMTIuMTkuMTksMCwwLDEtLjExLjA4LjYyLjYyLDAsMCwxLS4yMiwwaC0uNzZhLjMxLjMxLDAsMCwxLS4yLS4wOC4yMy4yMywwLDAsMSwwLS4xNywxLjEyLDEuMTIsMCwwLDEsLjA4LS4zbDIuMTQtNi4xN2EuNTMuNTMsMCwwLDEsLjA4LS4xNXMuMDctLjA2LjEzLS4wOGEuODMuODMsMCwwLDEsLjI2LDBoLjk1YTEuMDYsMS4wNiwwLDAsMSwuMjksMCwuMjcuMjcsMCwwLDEsLjE1LjA4LjU0LjU0LDAsMCwxLC4wOC4xN1ptLTMuMTktNS4xaDBsLTEsM2gyWiIgY2xhc3M9ImNscy0zIi8+PHBhdGggZD0iTTMzLjYsNDBhLjU0LjU0LDAsMCwxLDAsLjIyLjQ4LjQ4LDAsMCwxLS4xMi4xNi40Ni40NiwwLDAsMS0uMTcuMDkuNjkuNjksMCwwLDEtLjIsMGgtLjZhMS41NSwxLjU1LDAsMCwxLS4zMywwLC44OS44OSwwLDAsMS0uMjUtLjE0LDEuMjMsMS4yMywwLDAsMS0uMjItLjI3LDMuMzYsMy4zNiwwLDAsMS0uMjQtLjQ0TDI5LjcsMzYuMzZjLS4xLS4xOS0uMjEtLjQtLjMxLS42MnMtLjItLjQ0LS4yOC0uNjZoMGwwLC43OGMwLC4yNSwwLC41MiwwLC43OXYzLjYzYS4xNy4xNywwLDAsMSwwLC4xLjIuMiwwLDAsMS0uMS4wNy43Mi43MiwwLDAsMS0uMiwwaC0uNjJhLjcyLjcyLDAsMCwxLS4yLDBzLS4wOCwwLS4wOS0uMDdhLjE3LjE3LDAsMCwxLDAtLjFWMzRhLjQ2LjQ2LDAsMCwxLC4xNS0uMzguNTIuNTIsMCwwLDEsLjM2LS4xM2guNzZhMS4xMywxLjEzLDAsMCwxLC4zNCwwLC43MS43MSwwLDAsMSwuMjUuMTEsMS4yLDEuMiwwLDAsMSwuMjEuMjMsMy4zNCwzLjM0LDAsMCwxLC4yLjM1bDEuMzUsMi41NGMuMDguMTUuMTYuMy4yMy40NWwuMjMuNDUuMjEuNDNjLjA2LjE1LjEzLjI5LjE5LjQzaDBjMC0uMjUsMC0uNTEsMC0uNzhzMC0uNTMsMC0uNzhWMzMuNzRhLjE5LjE5LDAsMCwxLDAtLjEuMzUuMzUsMCwwLDEsLjExLS4wNy43Mi43MiwwLDAsMSwuMiwwaC42MmEuNjQuNjQsMCwwLDEsLjE5LDAsLjIzLjIzLDAsMCwxLC4wOS4wNy4xOS4xOSwwLDAsMSwwLC4xWiIgY2xhc3M9ImNscy0zIi8+PHBhdGggZD0iTTQwLjg5LDM2LjkxYTQuNjYsNC42NiwwLDAsMS0uMjUsMS42MywyLjg5LDIuODksMCwwLDEtLjcyLDEuMTEsMi43OCwyLjc4LDAsMCwxLTEuMTMuNjMsNS40Miw1LjQyLDAsMCwxLTEuNi4ySDM1LjUzYS40My40MywwLDAsMS0uMjktLjEuNDQuNDQsMCwwLDEtLjEyLS4zNFYzNGEuNDMuNDMsMCwwLDEsLjEyLS4zNC40NC40NCwwLDAsMSwuMjktLjExaDEuNzlhNC43OSw0Ljc5LDAsMCwxLDEuNTcuMjIsMi43NCwyLjc0LDAsMCwxLDEuMDkuNjQsMi44NSwyLjg1LDAsMCwxLC42OCwxLjA2QTQuMyw0LjMsMCwwLDEsNDAuODksMzYuOTFabS0xLjQ2LDBhMy4yOCwzLjI4LDAsMCwwLS4xMi0uOTEsMS44NCwxLjg0LDAsMCwwLS4zNy0uNzQsMS43OCwxLjc4LDAsMCwwLS42NS0uNDksMi44MSwyLjgxLDAsMCwwLTEtLjE3aC0uNzJ2NC43M2guNzRhMi44NCwyLjg0LDAsMCwwLDEtLjE1LDEuODMsMS44MywwLDAsMCwuNjYtLjQ2LDEuOTIsMS45MiwwLDAsMCwuNC0uNzVBNC4xNSw0LjE1LDAsMCwwLDM5LjQzLDM3WiIgY2xhc3M9ImNscy0zIi8+PHBhdGggZD0iTTQ3LjQ4LDQwYTIuNzgsMi43OCwwLDAsMSwuMDkuMy4xOS4xOSwwLDAsMSwwLC4xNy4zNC4zNCwwLDAsMS0uMjEuMDdoLS44NGExLDEsMCwwLDEtLjIzLDAsLjE3LjE3LDAsMCwxLS4xMS0uMDYuMzkuMzksMCwwLDEtLjA2LS4xMWwtLjQ3LTEuNEg0M2wtLjQ0LDEuMzZhLjMzLjMzLDAsMCwxLDAsLjEyLjIxLjIxLDAsMCwxLS4xMi4wOC41Ni41NiwwLDAsMS0uMjEsMEg0MS40YS4zMS4zMSwwLDAsMS0uMTktLjA4LjIzLjIzLDAsMCwxLDAtLjE3LDEuNywxLjcsMCwwLDEsLjA4LS4zbDIuMTUtNi4xN2EuNTIuNTIsMCwwLDEsLjA3LS4xNS4yNy4yNywwLDAsMSwuMTQtLjA4LjgzLjgzLDAsMCwxLC4yNiwwaDFhMS4wNiwxLjA2LDAsMCwxLC4yOSwwLC4yNy4yNywwLDAsMSwuMTUuMDguOTEuOTEsMCwwLDEsLjA4LjE3Wm0tMy4xOS01LjFoMGwtMSwzaDJaIiBjbGFzcz0iY2xzLTMiLz48cGF0aCBkPSJNNTMuNjEsNDAuM2EuMTYuMTYsMCwwLDEsMCwuMXMtLjA1LjA1LS4xLjA3YTEuMDksMS4wOSwwLDAsMS0uMjQsMGgtLjc4YS41Ni41NiwwLDAsMS0uMjEsMCwuMjMuMjMsMCwwLDEtLjExLS4wN2wtLjA2LS4xMS0uNjItMS41NWMtLjA4LS4xOC0uMTUtLjM0LS4yMi0uNDdhMS4yOCwxLjI4LDAsMCwwLS4yNC0uMzQuODkuODksMCwwLDAtLjctLjI4aC0uNDR2Mi42NWEuMTMuMTMsMCwwLDEsMCwuMS4zNS4zNSwwLDAsMS0uMTEuMDdsLS4yMiwwaC0uNjhsLS4yMiwwYS4zNS4zNSwwLDAsMS0uMTEtLjA3LjE3LjE3LDAsMCwxLDAtLjFWMzRhLjQzLjQzLDAsMCwxLC4xMi0uMzQuNDQuNDQsMCwwLDEsLjMtLjExaDIuMjVsLjMyLDBhMy4xNiwzLjE2LDAsMCwxLC43NS4yLDEuODMsMS44MywwLDAsMSwuNTcuMzgsMS41LDEuNSwwLDAsMSwuMzYuNTYsMiwyLDAsMCwxLC4xMi43MywyLjIsMi4yLDAsMCwxLS4wOS42NCwxLjM3LDEuMzcsMCwwLDEtLjI2LjUxLDEuNTcsMS41NywwLDAsMS0uNDIuMzksMi41LDIuNSwwLDAsMS0uNTcuMjcsMS43NSwxLjc1LDAsMCwxLC4yOS4xOCwxLjYsMS42LDAsMCwxLC4yNi4yNiwyLjMzLDIuMzMsMCwwLDEsLjIyLjM1LDIuNTYsMi41NiwwLDAsMSwuMjEuNDRsLjU5LDEuMzcuMTEuM0ExLjI1LDEuMjUsMCwwLDEsNTMuNjEsNDAuM1ptLTEuODItNC43MmExLjA2LDEuMDYsMCwwLDAtLjE1LS41OCwxLDEsMCwwLDAtLjUxLS4zM2wtLjI1LDAtLjM4LDBoLS42M3YyaC43MmExLjcsMS43LDAsMCwwLC41My0uMDcsMS4xOCwxLjE4LDAsMCwwLC4zNy0uMi45LjksMCwwLDAsLjIzLS4zMkExLjA3LDEuMDcsMCwwLDAsNTEuNzksMzUuNThaIiBjbGFzcz0iY2xzLTMiLz48cGF0aCBkPSJNNjAuNDIsMzYuOTFhNC42Niw0LjY2LDAsMCwxLS4yNSwxLjYzLDIuNjYsMi42NiwwLDAsMS0xLjg1LDEuNzQsNS4zOSw1LjM5LDAsMCwxLTEuNTkuMkg1NS4wN2EuMzkuMzksMCwwLDEtLjQyLS40NFYzNGEuNDMuNDMsMCwwLDEsLjEyLS4zNC40NC40NCwwLDAsMSwuMy0uMTFoMS43OGE0Ljg2LDQuODYsMCwwLDEsMS41OC4yMiwyLjg5LDIuODksMCwwLDEsMS4wOS42NCwyLjgzLDIuODMsMCwwLDEsLjY3LDEuMDZBNC4wNyw0LjA3LDAsMCwxLDYwLjQyLDM2LjkxWk01OSwzN2EzLjcyLDMuNzIsMCwwLDAtLjExLS45MSwyLDIsMCwwLDAtLjM3LS43NCwxLjczLDEuNzMsMCwwLDAtLjY2LS40OSwyLjgxLDIuODEsMCwwLDAtMS0uMTdoLS43MXY0LjczaC43M2EyLjc3LDIuNzcsMCwwLDAsMS0uMTUsMS42NywxLjY3LDAsMCwwLC42Ni0uNDYsMS45MiwxLjkyLDAsMCwwLC40LS43NUEzLjc1LDMuNzUsMCwwLDAsNTksMzdaIiBjbGFzcz0iY2xzLTMiLz48L2c+PC9nPjwvc3ZnPg==;" vertex="1" parent="3tbVtcQ5HgRzrrxqIutd-11">
          <mxGeometry x="75" y="2" width="90" height="90" as="geometry" />
        </mxCell>
        <mxCell id="3tbVtcQ5HgRzrrxqIutd-70" style="edgeStyle=orthogonalEdgeStyle;rounded=0;orthogonalLoop=1;jettySize=auto;html=1;exitX=0;exitY=0.75;exitDx=0;exitDy=0;entryX=0;entryY=0.75;entryDx=0;entryDy=0;strokeColor=#435cc8;" edge="1" parent="3tbVtcQ5HgRzrrxqIutd-11" source="3tbVtcQ5HgRzrrxqIutd-12" target="3tbVtcQ5HgRzrrxqIutd-14">
          <mxGeometry relative="1" as="geometry">
            <Array as="points">
              <mxPoint x="60" y="168" />
              <mxPoint x="60" y="261" />
            </Array>
          </mxGeometry>
        </mxCell>
        <mxCell id="3tbVtcQ5HgRzrrxqIutd-71" style="edgeStyle=orthogonalEdgeStyle;rounded=0;orthogonalLoop=1;jettySize=auto;html=1;exitX=1;exitY=0.75;exitDx=0;exitDy=0;entryX=0;entryY=0.5;entryDx=0;entryDy=0;strokeColor=#435cc8;" edge="1" parent="3tbVtcQ5HgRzrrxqIutd-11" source="3tbVtcQ5HgRzrrxqIutd-12" target="3tbVtcQ5HgRzrrxqIutd-14">
          <mxGeometry relative="1" as="geometry">
            <mxPoint x="100" y="240" as="targetPoint" />
            <Array as="points">
              <mxPoint x="165" y="168" />
              <mxPoint x="165" y="202" />
              <mxPoint x="70" y="202" />
              <mxPoint x="70" y="248" />
            </Array>
          </mxGeometry>
        </mxCell>
        <mxCell id="3tbVtcQ5HgRzrrxqIutd-12" value="" style="shape=image;editableCssRules=.*;verticalLabelPosition=bottom;labelBackgroundColor=default;verticalAlign=top;aspect=fixed;imageAspect=0;image=data:image/svg+xml,PHN2ZyB4bWxucz0iaHR0cDovL3d3dy53My5vcmcvMjAwMC9zdmciIHZpZXdCb3g9IjAgMCA3MiA3MiI+PGRlZnM+PHN0eWxlPi5jbHMtMXtmaWxsOiMzMzM7fS5jbHMtMntmaWxsOiNmZmY7fTwvc3R5bGU+PC9kZWZzPjxnIGRhdGEtbmFtZT0iTGF5ZXIgMiIgaWQ9IkxheWVyXzIiPjxnIGRhdGEtbmFtZT0iTGF5ZXIgNSIgaWQ9IkxheWVyXzUiPjxjaXJjbGUgcj0iMzYiIGN5PSIzNiIgY3g9IjM2IiBjbGFzcz0iY2xzLTEiLz48cGF0aCBkPSJNMTYuMDUsNTIuMzNoMS44YTIuOCwyLjgsMCwwLDAsMi44LTIuOFYxNy40M2EyLjgsMi44LDAsMCwwLTIuOC0yLjhoLTEuOGEyLjgsMi44LDAsMCwwLTIuOCwyLjh2MzIuMUEyLjY4LDIuNjgsMCwwLDAsMTYuMDUsNTIuMzNabS0xLjgtMzQuOWExLjc5LDEuNzksMCwwLDEsMS44LTEuOGgxLjhhMS43OSwxLjc5LDAsMCwxLDEuOCwxLjh2MzIuMWExLjc5LDEuNzksMCwwLDEtMS44LDEuOGgtMS44YTEuNzMsMS43MywwLDAsMS0xLjgtMS44WiIgY2xhc3M9ImNscy0yIi8+PHBhdGggZD0iTTI5LjE2LDUwLjUzbDAsLjA3WiIgY2xhc3M9ImNscy0yIi8+PHBhdGggZD0iTTI4LjkzLDUxbC0uMDUuMDlaIiBjbGFzcz0iY2xzLTIiLz48cGF0aCBkPSJNMjcuNTUsNTIuMTRhMy42NiwzLjY2LDAsMCwxLS40NC4xM0EzLjY2LDMuNjYsMCwwLDAsMjcuNTUsNTIuMTRaIiBjbGFzcz0iY2xzLTIiLz48cGF0aCBkPSJNMjguNjcsNTEuMzVsLS4xNC4xNloiIGNsYXNzPSJjbHMtMiIvPjxwYXRoIGQ9Ik0yOCw1MS45MWEyLjkzLDIuOTMsMCwwLDEtLjM5LjIxQTIuOTMsMi45MywwLDAsMCwyOCw1MS45MVoiIGNsYXNzPSJjbHMtMiIvPjxwYXRoIGQ9Ik0yMiw0OS41NGEyLjc0LDIuNzQsMCwwLDAsMi43OSwyLjc5QTIuOCwyLjgsMCwwLDEsMjIsNDkuNTRaIiBjbGFzcz0iY2xzLTIiLz48cGF0aCBkPSJNMjguMzYsNTEuNjVhMi42NSwyLjY1LDAsMCwxLS4yNi4yMUExLjgzLDEuODMsMCwwLDAsMjguMzYsNTEuNjVaIiBjbGFzcz0iY2xzLTIiLz48cGF0aCBkPSJNMjQuNzUsNTIuMzNoMS44YTIuNjcsMi42NywwLDAsMCwuNTYtLjA2LDIuNiwyLjYsMCwwLDEtLjU2LjA2WiIgY2xhc3M9ImNscy0yIi8+PHBhdGggZD0iTTY5LjI1LDMzLjIzLDYyLDI5djMuM2gtNC41djE4LjVhMy44NiwzLjg2LDAsMCwxLTMuOCwzLjhIMTUuNDVhMy44NiwzLjg2LDAsMCwxLTMuOC0zLjhWMzIuMzNIMi44NVYzNEgxMHYxNi44YTUuNTEsNS41MSwwLDAsMCw1LjQsNS40aDM4LjNhNS41MSw1LjUxLDAsMCwwLDUuNC01LjRWMzRINjJ2My40WiIgY2xhc3M9ImNscy0yIi8+PHBhdGggZD0iTTI4LjUzLDUxLjUxbC0uMTcuMTRaIiBjbGFzcz0iY2xzLTIiLz48cGF0aCBkPSJNMjguMSw1MS44NmwtLjA5LDBaIiBjbGFzcz0iY2xzLTIiLz48cGF0aCBkPSJNMjguODgsNTEuMDhhMi43OCwyLjc4LDAsMCwxLS4yMS4yN1oiIGNsYXNzPSJjbHMtMiIvPjxwYXRoIGQ9Ik0yOS4yOSw1MC4wOWEzLjY2LDMuNjYsMCwwLDEtLjEzLjQ0QTMuMTksMy4xOSwwLDAsMCwyOS4yOSw1MC4wOVoiIGNsYXNzPSJjbHMtMiIvPjxwYXRoIGQ9Ik0yNy42Miw1Mi4xMmwtLjA3LDBaIiBjbGFzcz0iY2xzLTIiLz48cGF0aCBkPSJNMjkuMTMsNTAuNmExLjc5LDEuNzksMCwwLDEtLjIuMzlBMS43OSwxLjc5LDAsMCwwLDI5LjEzLDUwLjZaIiBjbGFzcz0iY2xzLTIiLz48cGF0aCBkPSJNMjIsNDkuNTNoMGEyLjgsMi44LDAsMCwwLDIuNzksMi43OWgxLjgxYTIuNiwyLjYsMCwwLDAsLjU2LS4wNiwzLjY2LDMuNjYsMCwwLDAsLjQ0LS4xM2wuMDcsMGEyLjkzLDIuOTMsMCwwLDAsLjM5LS4yMWwuMDksMGEyLjY1LDIuNjUsMCwwLDAsLjI2LS4yMWwuMTctLjE0LjE0LS4xNmEyLjc4LDIuNzgsMCwwLDAsLjIxLS4yN2wuMDUtLjA5YTEuNzksMS43OSwwLDAsMCwuMi0uMzlsMC0uMDdhMy42NiwzLjY2LDAsMCwwLC4xMy0uNDQsMi42LDIuNiwwLDAsMCwuMDYtLjU2VjE3LjRhMy4wNywzLjA3LDAsMCwwLS4wNi0uNTMsMi41OSwyLjU5LDAsMCwwLS4xNC0uNDUuMTQuMTQsMCwwLDAsMC0uMDYsMi4zOCwyLjM4LDAsMCwwLS4yLS4zOWwtLjA1LS4wOWEyLjc4LDIuNzgsMCwwLDAtLjIxLS4yN2wtLjE0LS4xNi0uMTctLjE0YTIuNjUsMi42NSwwLDAsMC0uMjYtLjIxbC0uMDksMGEyLjkzLDIuOTMsMCwwLDAtLjM5LS4yMWwtLjA4LDBhMy4wNiwzLjA2LDAsMCwwLS40My0uMTMsMi42LDIuNiwwLDAsMC0uNTYtLjA2aC0xLjhhMi42LDIuNiwwLDAsMC0uNTYuMDYsMy42NiwzLjY2LDAsMCwwLS40NC4xM2wtLjA4LDBhMi44MiwyLjgyLDAsMCwwLS4zOC4yMWwtLjEsMGMtLjA5LjA2LS4xNy4xNC0uMjYuMjFsLS4xNi4xNC0uMTQuMTZhMi43OCwyLjc4LDAsMCwwLS4yMS4yN2wtLjA1LjA5YTIuNDIsMi40MiwwLDAsMC0uMjEuMzlzMCwwLDAsLjA2LS4xLjMtLjE0LjQ1YTMuMDcsMy4wNywwLDAsMC0uMDUuNTNWNDkuNTNabTEtMzIuMWExLjc5LDEuNzksMCwwLDEsMS44LTEuOGgxLjhhMS43OSwxLjc5LDAsMCwxLDEuOCwxLjh2MzIuMWExLjc5LDEuNzksMCwwLDEtMS44LDEuOGgtMS44YTEuNzksMS43OSwwLDAsMS0xLjgtMS44WiIgY2xhc3M9ImNscy0yIi8+PHBhdGggZD0iTTM5LjM1LDE3LjQzdjMyLjFhMi42OCwyLjY4LDAsMCwwLDIuOCwyLjhoMS43YTIuOCwyLjgsMCwwLDAsMi44LTIuOFYxNy40M2EyLjgsMi44LDAsMCwwLTIuOC0yLjhoLTEuN0EyLjgsMi44LDAsMCwwLDM5LjM1LDE3LjQzWm0xLDBhMS43OSwxLjc5LDAsMCwxLDEuOC0xLjhINDRhMS43OSwxLjc5LDAsMCwxLDEuOCwxLjh2MzIuMWExLjc5LDEuNzksMCwwLDEtMS44LDEuOGgtMS44YTEuNzMsMS43MywwLDAsMS0xLjgtMS44WiIgY2xhc3M9ImNscy0yIi8+PHBhdGggZD0iTTQ4LjIyLDE3LjQzdjMyLjFhMi42OCwyLjY4LDAsMCwwLDIuOCwyLjhoMS43YTIuOCwyLjgsMCwwLDAsMi44LTIuOFYxNy40M2EyLjgsMi44LDAsMCwwLTIuOC0yLjhINTFBMi44LDIuOCwwLDAsMCw0OC4yMiwxNy40M1ptMSwwYTEuNzksMS43OSwwLDAsMSwxLjgtMS44aDEuOGExLjc5LDEuNzksMCwwLDEsMS44LDEuOHYzMi4xYTEuNzksMS43OSwwLDAsMS0xLjgsMS44SDUxYTEuNzMsMS43MywwLDAsMS0xLjgtMS44WiIgY2xhc3M9ImNscy0yIi8+PHBhdGggZD0iTTMwLjY1LDE3LjQzdjMyLjFhMi42OCwyLjY4LDAsMCwwLDIuOCwyLjhoMS43YTIuOCwyLjgsMCwwLDAsMi44LTIuOFYxNy40M2EyLjgsMi44LDAsMCwwLTIuOC0yLjhoLTEuN0EyLjgsMi44LDAsMCwwLDMwLjY1LDE3LjQzWm0uOSwwYTEuNzksMS43OSwwLDAsMSwxLjgtMS44aDEuOGExLjc5LDEuNzksMCwwLDEsMS44LDEuOHYzMi4xYTEuNzksMS43OSwwLDAsMS0xLjgsMS44aC0xLjhhMS43MywxLjczLDAsMCwxLTEuOC0xLjhaIiBjbGFzcz0iY2xzLTIiLz48L2c+PC9nPjwvc3ZnPg==;" vertex="1" parent="3tbVtcQ5HgRzrrxqIutd-11">
          <mxGeometry x="95" y="130" width="50" height="50" as="geometry" />
        </mxCell>
        <mxCell id="3tbVtcQ5HgRzrrxqIutd-13" value="Messaging Queue" style="text;html=1;align=center;verticalAlign=middle;whiteSpace=wrap;rounded=0;" vertex="1" parent="3tbVtcQ5HgRzrrxqIutd-11">
          <mxGeometry x="70" y="100" width="100" height="30" as="geometry" />
        </mxCell>
        <mxCell id="3tbVtcQ5HgRzrrxqIutd-14" value="" style="shape=image;editableCssRules=.*;verticalLabelPosition=bottom;labelBackgroundColor=default;verticalAlign=top;aspect=fixed;imageAspect=0;image=data:image/svg+xml,PHN2ZyB4bWxucz0iaHR0cDovL3d3dy53My5vcmcvMjAwMC9zdmciIHZpZXdCb3g9IjAgMCA3MiA3MiI+PGRlZnM+PHN0eWxlPi5jbHMtMXtmaWxsOiMzMzM7fS5jbHMtMntmaWxsOiNmZmY7fTwvc3R5bGU+PC9kZWZzPjxnIGRhdGEtbmFtZT0iTGF5ZXIgMiIgaWQ9IkxheWVyXzIiPjxnIGRhdGEtbmFtZT0iTGF5ZXIgNSIgaWQ9IkxheWVyXzUiPjxjaXJjbGUgcj0iMzYiIGN5PSIzNiIgY3g9IjM2IiBjbGFzcz0iY2xzLTEiLz48cGF0aCBkPSJNNDIsNTIuMzNoMS44YTIuOCwyLjgsMCwwLDAsMi44LTIuOFYxNy40M2EyLjgsMi44LDAsMCwwLTIuOC0yLjhINDJhMi44LDIuOCwwLDAsMC0yLjgsMi44djMyLjFBMi44LDIuOCwwLDAsMCw0Miw1Mi4zM1oiIGNsYXNzPSJjbHMtMiIvPjxwYXRoIGQ9Ik0zMC43LDE3LjQzdjMyLjFhMi42OCwyLjY4LDAsMCwwLDIuOCwyLjhoMS43YTIuOCwyLjgsMCwwLDAsMi44LTIuOFYxNy40M2EyLjgsMi44LDAsMCwwLTIuOC0yLjhIMzMuNUEyLjgsMi44LDAsMCwwLDMwLjcsMTcuNDNabTEsMGExLjc5LDEuNzksMCwwLDEsMS44LTEuOGgxLjhhMS43OSwxLjc5LDAsMCwxLDEuOCwxLjh2MzIuMWExLjc5LDEuNzksMCwwLDEtMS44LDEuOEgzMy41YTEuNzMsMS43MywwLDAsMS0xLjgtMS44WiIgY2xhc3M9ImNscy0yIi8+PHBhdGggZD0iTTIyLDE3LjQzdjMyLjFoMGEyLjc5LDIuNzksMCwwLDAsMi43OSwyLjhIMjYuNWEyLjgsMi44LDAsMCwwLDIuOC0yLjhWMTcuNDNhMi44LDIuOCwwLDAsMC0yLjgtMi44SDI0LjhBMi44LDIuOCwwLDAsMCwyMiwxNy40M1ptMSwwYTEuNzksMS43OSwwLDAsMSwxLjgtMS44aDEuOGExLjc5LDEuNzksMCwwLDEsMS44LDEuOHYzMi4xYTEuNzksMS43OSwwLDAsMS0xLjgsMS44SDI0LjhhMS42OCwxLjY4LDAsMCwxLTEuOC0xLjhaIiBjbGFzcz0iY2xzLTIiLz48cGF0aCBkPSJNMTMuMywxNy40M3YzMi4xYTIuNjgsMi42OCwwLDAsMCwyLjgsMi44aDEuN2EyLjgsMi44LDAsMCwwLDIuOC0yLjhWMTcuNDNhMi44LDIuOCwwLDAsMC0yLjgtMi44SDE2LjFBMi44LDIuOCwwLDAsMCwxMy4zLDE3LjQzWm0xLDBhMS43OSwxLjc5LDAsMCwxLDEuOC0xLjhoMS44YTEuNzksMS43OSwwLDAsMSwxLjgsMS44djMyLjFhMS43OSwxLjc5LDAsMCwxLTEuOCwxLjhIMTYuMWExLjczLDEuNzMsMCwwLDEtMS44LTEuOFoiIGNsYXNzPSJjbHMtMiIvPjxwYXRoIGQ9Ik02OS4yLDMzLjIzLDYxLjksMjl2My4zSDU3LjR2MTguNWEzLjY1LDMuNjUsMCwwLDEtLjA4Ljc0LDQuNDcsNC40NywwLDAsMS0uMi42NXMwLDAsMCwuMDVhMy41NSwzLjU1LDAsMCwxLS4zLjU0LjM5LjM5LDAsMCwxLS4wNi4xMSwzLjI2LDMuMjYsMCwwLDEtLjI5LjM2bC0uMTguMjItLjIyLjE4Yy0uMTIuMS0uMjMuMjEtLjM2LjNsLS4xLjA1YTQuMjEsNC4yMSwwLDAsMS0uNTUuM2wwLDBhNC40Nyw0LjQ3LDAsMCwxLS42NS4yLDMuNjUsMy42NSwwLDAsMS0uNzQuMDhIMTUuMzlhMy41NSwzLjU1LDAsMCwxLS43My0uMDgsNC42LDQuNiwwLDAsMS0uNjYtLjJsMCwwYTQuMjEsNC4yMSwwLDAsMS0uNTUtLjNsLS4xLS4wNWEzLjU4LDMuNTgsMCwwLDEtLjM2LS4zbC0uMjItLjE4Yy0uMDctLjA3LS4xMi0uMTUtLjE4LS4yMmEzLjM3LDMuMzcsMCwwLDEtLjMtLjM2czAtLjA3LS4wNi0uMTFhMy41LDMuNSwwLDAsMS0uMjktLjU0czAsMCwwLS4wNWEzLjUsMy41LDAsMCwxLS4yLS42NSwzLjY1LDMuNjUsMCwwLDEtLjA4LS43NFYzMi4zM0gyLjhWMzRIMTB2MTYuOGE1LjUxLDUuNTEsMCwwLDAsNS40LDUuNEg1My41YTUuNTEsNS41MSwwLDAsMCw1LjQtNS40VjM0aDN2My4zNGw3LjI5LTQuMTRaIiBjbGFzcz0iY2xzLTIiLz48cGF0aCBkPSJNNDgsNDkuNTNoMGEyLjgsMi44LDAsMCwwLDIuNzksMi43OUg1Mi42YTIuNiwyLjYsMCwwLDAsLjU2LS4wNiwzLjY2LDMuNjYsMCwwLDAsLjQ0LS4xM2wuMDcsMGEyLjkzLDIuOTMsMCwwLDAsLjM5LS4yMWwuMDksMGEyLjY1LDIuNjUsMCwwLDAsLjI2LS4yMWwuMTctLjE0LjE0LS4xNmEyLjc4LDIuNzgsMCwwLDAsLjIxLS4yN0w1NSw1MWExLjc5LDEuNzksMCwwLDAsLjItLjM5bDAtLjA3YTMuNjYsMy42NiwwLDAsMCwuMTMtLjQ0LDIuNiwyLjYsMCwwLDAsLjA2LS41NlYxNy40YTMuMDcsMy4wNywwLDAsMC0uMDYtLjUzLDMuODEsMy44MSwwLDAsMC0uMTMtLjQ1bDAtLjA2QTIuMzgsMi4zOCwwLDAsMCw1NSwxNmwwLS4wOWEyLjc4LDIuNzgsMCwwLDAtLjIxLS4yN2wtLjE0LS4xNi0uMTctLjE0YTEuODMsMS44MywwLDAsMC0uMjYtLjIxbC0uMDksMGEyLjkzLDIuOTMsMCwwLDAtLjM5LS4yMWwtLjA4LDBhMy4wNiwzLjA2LDAsMCwwLS40My0uMTMsMi42LDIuNiwwLDAsMC0uNTYtLjA2SDUwLjhhMi42LDIuNiwwLDAsMC0uNTYuMDYsMy42NiwzLjY2LDAsMCwwLS40NC4xM2wtLjA4LDBhMi44MiwyLjgyLDAsMCwwLS4zOC4yMWwtLjA5LDBhMi43OCwyLjc4LDAsMCwwLS4yNy4yMWwtLjE2LjE0LS4xNC4xNmEyLjc4LDIuNzgsMCwwLDAtLjIxLjI3bDAsLjA5YTIuNDIsMi40MiwwLDAsMC0uMjEuMzlzMCwwLDAsLjA2LS4xLjMtLjE0LjQ1YTMuMDcsMy4wNywwLDAsMCwwLC41M1Y0OS41M1oiIGNsYXNzPSJjbHMtMiIvPjwvZz48L2c+PC9zdmc+;" vertex="1" parent="3tbVtcQ5HgRzrrxqIutd-11">
          <mxGeometry x="95" y="223" width="50" height="50" as="geometry" />
        </mxCell>
        <mxCell id="3tbVtcQ5HgRzrrxqIutd-15" value="Tracing Queue" style="text;html=1;align=center;verticalAlign=middle;whiteSpace=wrap;rounded=0;" vertex="1" parent="3tbVtcQ5HgRzrrxqIutd-11">
          <mxGeometry x="70" y="200" width="100" height="30" as="geometry" />
        </mxCell>
        <mxCell id="3tbVtcQ5HgRzrrxqIutd-68" value="q" style="text;html=1;align=center;verticalAlign=middle;whiteSpace=wrap;rounded=0;" vertex="1" parent="3tbVtcQ5HgRzrrxqIutd-11">
          <mxGeometry x="90" y="172" width="60" height="30" as="geometry" />
        </mxCell>
        <mxCell id="3tbVtcQ5HgRzrrxqIutd-69" value="#telemetry-trace" style="text;html=1;align=center;verticalAlign=middle;whiteSpace=wrap;rounded=0;" vertex="1" parent="3tbVtcQ5HgRzrrxqIutd-11">
          <mxGeometry x="75" y="269" width="90" height="30" as="geometry" />
        </mxCell>
        <mxCell id="3tbVtcQ5HgRzrrxqIutd-16" value="" style="rounded=0;whiteSpace=wrap;html=1;" vertex="1" parent="1">
          <mxGeometry x="280" y="440" width="160" height="140" as="geometry" />
        </mxCell>
        <mxCell id="3tbVtcQ5HgRzrrxqIutd-17" value="" style="shape=image;verticalLabelPosition=bottom;verticalAlign=top;imageAspect=0;aspect=fixed;image=data:image/svg+xml,PHN2ZyB4bWxucz0iaHR0cDovL3d3dy53My5vcmcvMjAwMC9zdmciIHZpZXdCb3g9IjAgMCAxMjggMTI4Ij4mI3hhOyAgPHBhdGggZD0iTTY3LjY0OCA2OS43OTdjLTUuMjQ2IDUuMjUtNS4yNDYgMTMuNzU4IDAgMTkuMDA4IDUuMjUgNS4yNDYgMTMuNzU4IDUuMjQ2IDE5LjAwNCAwIDUuMjUtNS4yNSA1LjI1LTEzLjc1OCAwLTE5LjAwOC01LjI0Ni01LjI0Ni0xMy43NTQtNS4yNDYtMTkuMDA0IDBabTE0LjIwNyAxNC4yMTlhNi42NDkgNi42NDkgMCAwIDEtOS40MSAwIDYuNjUgNi42NSAwIDAgMSAwLTkuNDA3IDYuNjQ5IDYuNjQ5IDAgMCAxIDkuNDEgMGMyLjU5OCAyLjU4NiAyLjU5OCA2LjgwOSAwIDkuNDA3Wk04Ni40MyAzLjY3MmwtOC4yMzUgOC4yMzRhNC4xNyA0LjE3IDAgMCAwIDAgNS44NzVsMzIuMTQ5IDMyLjE0OWE0LjE3IDQuMTcgMCAwIDAgNS44NzUgMGw4LjIzNC04LjIzNWMxLjYxLTEuNjEgMS42MS00LjI2MSAwLTUuODdMOTIuMjkgMy42NzFhNC4xNTkgNC4xNTkgMCAwIDAtNS44NiAwWk0yOC43MzggMTA4Ljg5NWEzLjc2MyAzLjc2MyAwIDAgMCAwLTUuMzFsLTQuMTgzLTQuMTg3YTMuNzY4IDMuNzY4IDAgMCAwLTUuMzEzIDBsLTguNjQ0IDguNjQ5LS4wMTYuMDEyLTIuMzcxLTIuMzc1Yy0xLjMxMy0xLjMxMy0zLjQ1LTEuMzEzLTQuNzUgMC0xLjMxMyAxLjMxMi0xLjMxMyAzLjQ0OSAwIDQuNzVsMTQuMjQ2IDE0LjI0MmEzLjM1MyAzLjM1MyAwIDAgMCA0Ljc0NiAwYzEuMy0xLjMxMyAxLjMxMy0zLjQ1IDAtNC43NDZsLTIuMzc1LTIuMzc1LjAxNi0uMDEyWm0wIDAiIGZpbGw9IiNmNWE4MDAiLz4mI3hhOyAgPHBhdGggZD0iTTcyLjI5NyAyNy4zMTMgNTQuMDA0IDQ1LjYwNWMtMS42MjUgMS42MjUtMS42MjUgNC4zMDEgMCA1LjkyNkw2NS4zIDYyLjgyNGM3Ljk4NC01Ljc0NiAxOS4xOC01LjAzNSAyNi4zNjMgMi4xNTNsOS4xNDgtOS4xNDljMS42MjItMS42MjUgMS42MjItNC4yOTcgMC01LjkyMkw3OC4yMiAyNy4zMTNhNC4xODUgNC4xODUgMCAwIDAtNS45MjIgMFpNNjAuNTUgNjcuNTg1bC02LjY3Mi02LjY3MmMtMS41NjMtMS41NjItNC4xMjUtMS41NjItNS42ODQgMGwtMjMuNTMgMjMuNTRhNC4wMzYgNC4wMzYgMCAwIDAgMCA1LjY4N2wxMy4zMzEgMTMuMzMyYTQuMDM2IDQuMDM2IDAgMCAwIDUuNjg4IDBsMTUuMTMyLTE1LjE1N2MtMy4xOTktNi42MDktMi42MjUtMTQuNTkzIDEuNzM1LTIwLjczWm0wIDAiIGZpbGw9IiM0MjVjYzciLz4mI3hhOzwvc3ZnPg==" vertex="1" parent="1">
          <mxGeometry x="338.5" y="488.5" width="43" height="43" as="geometry" />
        </mxCell>
        <mxCell id="3tbVtcQ5HgRzrrxqIutd-18" value="OpenTelemetry&amp;nbsp;Collector" style="text;html=1;align=center;verticalAlign=middle;whiteSpace=wrap;rounded=0;" vertex="1" parent="1">
          <mxGeometry x="330" y="440" width="60" height="30" as="geometry" />
        </mxCell>
        <mxCell id="3tbVtcQ5HgRzrrxqIutd-58" style="edgeStyle=orthogonalEdgeStyle;rounded=0;orthogonalLoop=1;jettySize=auto;html=1;exitX=0.5;exitY=1;exitDx=0;exitDy=0;entryX=0.448;entryY=0;entryDx=0;entryDy=0;entryPerimeter=0;strokeWidth=6;strokeColor=#f6a800;" edge="1" parent="1" source="3tbVtcQ5HgRzrrxqIutd-16" target="3tbVtcQ5HgRzrrxqIutd-57">
          <mxGeometry relative="1" as="geometry" />
        </mxCell>
        <mxCell id="3tbVtcQ5HgRzrrxqIutd-59" style="edgeStyle=orthogonalEdgeStyle;rounded=0;orthogonalLoop=1;jettySize=auto;html=1;exitX=1;exitY=0.5;exitDx=0;exitDy=0;entryX=0.813;entryY=-0.007;entryDx=0;entryDy=0;entryPerimeter=0;strokeWidth=3;strokeColor=#435cc8;" edge="1" parent="1" source="3tbVtcQ5HgRzrrxqIutd-14" target="3tbVtcQ5HgRzrrxqIutd-16">
          <mxGeometry relative="1" as="geometry" />
        </mxCell>
        <mxCell id="3tbVtcQ5HgRzrrxqIutd-60" style="edgeStyle=orthogonalEdgeStyle;rounded=0;orthogonalLoop=1;jettySize=auto;html=1;exitX=0.5;exitY=1;exitDx=0;exitDy=0;entryX=1;entryY=0.5;entryDx=0;entryDy=0;strokeWidth=3;strokeColor=#435cc8;" edge="1" parent="1" source="3tbVtcQ5HgRzrrxqIutd-8" target="3tbVtcQ5HgRzrrxqIutd-16">
          <mxGeometry relative="1" as="geometry" />
        </mxCell>
        <mxCell id="3tbVtcQ5HgRzrrxqIutd-61" style="edgeStyle=orthogonalEdgeStyle;rounded=0;orthogonalLoop=1;jettySize=auto;html=1;exitX=0.5;exitY=1;exitDx=0;exitDy=0;entryX=0;entryY=0.5;entryDx=0;entryDy=0;strokeWidth=3;strokeColor=#435cc8;" edge="1" parent="1" source="3tbVtcQ5HgRzrrxqIutd-2" target="3tbVtcQ5HgRzrrxqIutd-16">
          <mxGeometry relative="1" as="geometry" />
        </mxCell>
        <mxCell id="3tbVtcQ5HgRzrrxqIutd-63" value="Local Containers" style="text;html=1;align=center;verticalAlign=middle;whiteSpace=wrap;rounded=0;" vertex="1" parent="1">
          <mxGeometry x="-30" y="40" width="110" height="30" as="geometry" />
        </mxCell>
        <mxCell id="3tbVtcQ5HgRzrrxqIutd-64" value="" style="group" vertex="1" connectable="0" parent="1">
          <mxGeometry x="180" y="680" width="380" height="188" as="geometry" />
        </mxCell>
        <mxCell id="3tbVtcQ5HgRzrrxqIutd-20" value="" style="rounded=0;whiteSpace=wrap;html=1;" vertex="1" parent="3tbVtcQ5HgRzrrxqIutd-64">
          <mxGeometry width="380" height="188" as="geometry" />
        </mxCell>
        <mxCell id="3tbVtcQ5HgRzrrxqIutd-21" value="" style="shape=image;editableCssRules=.*;verticalLabelPosition=bottom;verticalAlign=top;imageAspect=0;aspect=fixed;image=data:image/svg+xml,PHN2ZyB4bWxucz0iaHR0cDovL3d3dy53My5vcmcvMjAwMC9zdmciIHZpZXdCb3g9IjAgMCA3MiA3MiI+PGRlZnM+PHN0eWxlPi5jbHMtMXtmaWxsOiMzMzM7fS5jbHMtMntmaWxsOiNmZmY7fTwvc3R5bGU+PC9kZWZzPjxnIGRhdGEtbmFtZT0iTGF5ZXIgMiIgaWQ9IkxheWVyXzIiPjxnIGRhdGEtbmFtZT0iTGF5ZXIgNSIgaWQ9IkxheWVyXzUiPjxjaXJjbGUgcj0iMzYiIGN5PSIzNiIgY3g9IjM2IiBjbGFzcz0iY2xzLTEiLz48cGF0aCBkPSJNNDEuMjYsNjIuMDVoMFoiIGNsYXNzPSJjbHMtMiIvPjxwYXRoIGQ9Ik01Ny41NSw0OS43OWE0LjE2LDQuMTYsMCwwLDAtMS4zMy0yLjYyLDIuMDgsMi4wOCwwLDAsMS0uODEtMS45M2MuMTQtLjgzLjgxLTEuMzUsMS45LTEuNDlBMTQ3Ljg5LDE0Ny44OSwwLDAsMCw1NC40MiwyOC44YTkuNjcsOS42NywwLDAsMC0yLjkzLTUuMTljLjI1LS4xMi40OC0uMjQuNzEtLjM3bC44OS0uNDhjMi45Mi0xLjY0LDMuNC0yLjQzLDMuNS0yLjg4YS45LjksMCwwLDAtLjE1LS43OSwyLjA4LDIuMDgsMCwwLDAtMS42Ny0uNSwxOC42MywxOC42MywwLDAsMC0zLjYxLjQ4YzAsLjI0LDAsLjUtLjA3Ljc4YTE5LjMzLDE5LjMzLDAsMCwxLDMuNjctLjUyYy44NywwLDEuMDcuMTgsMS4xLjIyczAsMCwwLC4xNi0uMzguODQtMy4xNCwyLjRDNTIsMjIuNTUsNTEsMjMsNTAsMjMuNTR2MGgwYy0xLjIyLjU5LTIuNiwxLjIxLTQuMDgsMS44Ni0uODguMzgtMS43Ni43NS0yLjYyLDEuMS40Mi0uNDcuNzgtLjksMS0xLjIzYTEuNDcsMS40NywwLDAsMC0uMTktMi4wOC41MS41MSwwLDAsMC0uMTMtLjA5LDE2LjE2LDE2LjE2LDAsMCwxLDMuODUtLjRjMSwwLDEuNzguMDYsMS43OC4wNi4zMi0uNDUsMi4yMS02LjkxLTEtNi45MS0yLjgxLDAtNC42NCw1LjQ4LTUuMSw3QTEuNDUsMS40NSwwLDAsMCw0MiwyMy40YTMyLDMyLDAsMCwxLTQuNjIsNC44MWwtLjIxLjA4YTEuNDksMS40OSwwLDAsMC0yLjQyLDEuMjhsLS40NS4wOS0xLjA5LjA5LS4wOC0uMDhhMS40NywxLjQ3LDAsMCwwLTEuNi0uMThBMTEuNDIsMTEuNDIsMCwwLDEsMjcuNywyOC40YTE3LjYxLDE3LjYxLDAsMCwwLTQuMzQtMS4zNWMuNTEtLjIyLjg1LS4zNS44NS0uMzVzLTEuNzQtNS4xMS00LjA4LTUuMTFhMS44NSwxLjg1LDAsMCwwLS45NC4yN2MtMi44LDEuNywxLjExLDYuODUsMS4xMSw2Ljg1YTE1LjkzLDE1LjkzLDAsMCwxLDEuNDMtLjg2LDEuNDcsMS40NywwLDAsMCwxLDIuMTJjLTUuMjYtLjE3LTYuMTgtLjg4LTYuMzUtMS4xMWEuMjEuMjEsMCwwLDEsMC0uMjEsNC4xMiw0LjEyLDAsMCwxLDItMS41MSw2LjEsNi4xLDAsMCwxLS4zMi0uNjgsNC42Niw0LjY2LDAsMCwwLTIuNCwxLjkzLjg5Ljg5LDAsMCwwLC4wOS44OWMuMTcuMjUuNjEuODksMy44NSwxLjI0bC43Ny4wN2MtMS4zNiwyLjgyLS43Nyw1Ljk1LS4yNiw4LjU0QTcwLjM4LDcwLjM4LDAsMCwwLDIzLjg1LDUwYy42NiwxLjYxLDEuMjQsMywxLjYsMy44LDQuMTguMzcsOS41NS41OSwxNS40LjU5YTE2NS42OSwxNjUuNjksMCwwLDAsMTcuNTYtLjgxYy0uMjgtMS4wNy0uNzItMi45Mi0uODMtMy42MmEuNTMuNTMsMCwwLDAsMC0uMTJaTTQ2LjEzLDIwLjY1YTIsMiwwLDAsMSwwLS4yMyw1LjA4LDUuMDgsMCwwLDEsLjE0LS44Myw0LDQsMCwwLDEsLjQ4LTEuMTEsMi4yMiwyLjIyLDAsMCwxLC40Ny0uNTYsMi4wNywyLjA3LDAsMCwxLC4yNC0uMTdsLjE5LS4wOWExLjIxLDEuMjEsMCwwLDEsLjMxLS4wOSwxLjY2LDEuNjYsMCwwLDEsLjIyLDBoLjIybC4yMS4wNWgwbC4wNiwwaC4xMmEuODMuODMsMCwwLDEsLjIzLjE5bDAsLjA1LDAsLjA2YS4yNy4yNywwLDAsMSwuMDUuMTFzMCwwLDAsMHYwYTEuMjcsMS4yNywwLDAsMSwuMDUuNDJjMCwuMTMsMCwuMjQtLjA2LjM2YTEuNTEsMS41MSwwLDAsMS0uMS4zLDMuNDcsMy40NywwLDAsMS0uMjUuNTEsNC4zLDQuMywwLDAsMS0uNDYuNjksMi43NSwyLjc1LDAsMCwxLS4yMS4yNXMwLS4xMi4wNy0uM2wuMi0uNzhjMC0uMTYuMDctLjM0LjEtLjUxYTIuMzUsMi4zNSwwLDAsMCwwLS41Mi4xNy4xNywwLDAsMCwwLS4wNy44My44MywwLDAsMCwwLS4xMnMwLDAsMCwwaC0uMDZsLS4wNywwYS4zOC4zOCwwLDAsMC0uMSwwaC0uMjNhMS4xMywxLjEzLDAsMCwwLS4zMy4xM2wtLjEuMDctLjExLjA4YTEuOCwxLjgsMCwwLDAtLjE5LjJsLS4xLjEtLjE3LjIyYy0uMTYuMjMtLjMxLjQ3LS40NC42N3MtLjIzLjQxLS4zMS41NmwtLjA4LjE0Yy0uMS4xNy0uMTUuMjgtLjE1LjI4YS4xNC4xNCwwLDAsMCwwLS4wN1pNMzYsMjkuMDlsLjA2LDBhLjU5LjU5LDAsMCwxLC4xNywwLC42Ni42NiwwLDAsMSwuMTUsMCwuMjcuMjcsMCwwLDEsLjEzLjA3bC40Mi4zNC41Mi0uMTVjLjEyLDAsLjIzLS4wOC4zNi0uMTJsMCwwaDBhMy4xNiwzLjE2LDAsMCwwLC42LS40Myw0OC4yMyw0OC4yMywwLDAsMCw0LjM0LTQuNjQuNDEuNDEsMCwwLDEsLjM0LS4xNi40OC40OCwwLDAsMSwuMjguMS40My40MywwLDAsMSwuMDUuNjFjLS41OS43Mi0xLjE3LDEuMzgtMS43MSwyLS43NC44My0xLjQzLDEuNTQtMiwyLjA5LDAsLjA1LS4xLjExLS4xNS4xNWEyLjUyLDIuNTIsMCwwLDEtLjMuMjdsLS4yOC4yNGE0LjIzLDQuMjMsMCwwLDEtLjU4LjQ0LDEuMjEsMS4yMSwwLDAsMS0uMjYuMTVBLjM5LjM5LDAsMCwxLDM4LDMwYTIuNjgsMi42OCwwLDAsMS0uNDMuMTQsMiwyLDAsMCwxLS41My4wN2wtLjMyLDBhMS41NywxLjU3LDAsMCwxLS4yOS0uMDguNTkuNTksMCwwLDAtLjE0LS4wNkwzNi4xOSwzMGExLDEsMCwwLDEtLjM1LS4zNC4xNS4xNSwwLDAsMSwwLS4wOC4yNC4yNCwwLDAsMSwwLS4xNi40My40MywwLDAsMSwuMjEtLjM0Wm02LjQyLDE1LjY4YTYsNiwwLDAsMS0yLjMzLjNINDBjMCwuMjMsMCwuNS4wNy44MiwwLC4wNiwwLC4xMiwwLC4xOGExLjYzLDEuNjMsMCwwLDEtLjQ1LDEuMjYsMS41NiwxLjU2LDAsMCwxLTEuMTMuNDUsMS43OCwxLjc4LDAsMCwxLS41OS0uMDksMS4wOSwxLjA5LDAsMCwxLS4zNi0uMjIsMS4yNiwxLjI2LDAsMCwxLS43OC42NCwyLjM1LDIuMzUsMCwwLDEtLjUxLjA4Yy0uODQsMC0xLjQ4LS42My0xLjc3LTEuNzNsLS4yNC4xNGEyLjM0LDIuMzQsMCwwLDEtMS4wNy4yNSwyLjQ3LDIuNDcsMCwwLDEtMS44NS0uNzcsMS44MiwxLjgyLDAsMCwxLS40My0xLjQ1Yy4yMi0xLjY1LDIuNTctMi40OCwyLjg0LTIuNTdsLjQyLS4xNSwwLS4xM3MwLS4wNiwwLS4wOHYtLjExYS4wOS4wOSwwLDAsMSwwLS4wNXYwYS4zMS4zMSwwLDAsMSwwLS4wOHMwLS4wNiwwLS4wOCwwLDAsMCwwbDAtLjA2YTAsMCwwLDAsMSwwLDBzMCwwLDAtLjA2djBhLjQxLjQxLDAsMCwxLC4wNS0uMDkuMjguMjgsMCwwLDAsMC0uMDhzMCwwLDAsMCwwLDAsLjA1LS4wNmwwLDAsLjA2LS4wNmgwbC4xNy0uMTVoMHMuMDUsMCwuMDctLjA2bDAsMHMuMDYsMCwuMDgtLjA2aDBsLjEtLjA3LjEzLS4wN2gwYTEuNzUsMS43NSwwLDAsMSwuMjgtLjEzaDBsLjE1LS4wNi4xNS0uMDVoMGwuMTYsMCwuMTYsMGguMDVhLjYyLjYyLDAsMCwwLC4xNiwwbC4xOSwwLC4xOSwwaC43NWwuMTQsMGguMDhzLjA3LDAsLjA5LDBoLjA2bC4xLDBoMGwuMSwwaDBhMS41NywxLjU3LDAsMCwxLC41My4yOC4yNy4yNywwLDAsMSwuMDguMDdsLjA5LjA5LDAsMCwwLDAsMCwuMDYsMCwwaC41MmE4LDgsMCwwLDEsMi45My40OGMuNzYuMzEsMS4yMi43NSwxLjMsMS4yNmEyLjA3LDIuMDcsMCwwLDEtMS4zMSwyLjM0Wk0yMi4yOSwyNi40M2MtLjEyLS4xNC0uMjctLjM1LS40NC0uNTlzLS4zOC0uNTQtLjYtLjgyYTQuODcsNC44NywwLDAsMC0uMzMtLjQzYy0uMDUtLjA1LS4wOS0uMTEtLjE0LS4xNWEuODMuODMsMCwwLDAtLjE0LS4xM2wtLjA5LS4wNy0uMDgtLjA2LS4wNywwaC0uMDZsLS4wNywwYS4zMi4zMiwwLDAsMC0uMDYuMTMsMS41NywxLjU3LDAsMCwwLDAsLjQ0LDMuNCwzLjQsMCwwLDAsLjA2LjQ2YzAsLjI5LjEuNTUuMTQuNzJzMCwuMTYsMCwuMjFhLjA4LjA4LDAsMCwwLDAsMCwuMDcuMDcsMCwwLDAsMCwwLC4xNy4xNywwLDAsMS0uMDUtLjA2LDEuMzEsMS4zMSwwLDAsMS0uMTQtLjE2LDMuNTksMy41OSwwLDAsMS0uMy0uNDRjMC0uMDYtLjA3LS4xMy0uMTEtLjJsLS4wNy0uMTVhMy4yMSwzLjIxLDAsMCwxLS4xMi0uMzMsMS42NiwxLjY2LDAsMCwxLS4wOC0uNjUsMS4xOCwxLjE4LDAsMCwxLC4wNy0uMy41NC41NCwwLDAsMSwuMDUtLjExLjgyLjgyLDAsMCwxLC4zOS0uMzJoMGwuMDUsMGguMzJsLjEzLDBhMS4xOSwxLjE5LDAsMCwxLC4zLjE0bC4wOC4wNmExLjI3LDEuMjcsMCwwLDEsLjEyLjFsLjE1LjE0YTIuMzksMi4zOSwwLDAsMSwuMjEuMjZjLjEyLjE3LjIzLjM1LjMzLjUyYTQuNzcsNC43NywwLDAsMSwuMjUuNTFsLjExLjNhMS43NywxLjc3LDAsMCwxLC4wNi4xN2wuMDcuMjFjLjA2LjIxLjA5LjM4LjEzLjUxYTEuMzcsMS4zNywwLDAsMSwwLC4xNnYuMDVhLjE3LjE3LDAsMCwwLDAsLjA3bC0uMTgtLjIzWm0uMzMsMi4yYS41LjUsMCwwLDEsLjA3LS4zMi40NS40NSwwLDAsMSwuMjgtLjE5aC4yOWwuMTYsMCwuNC4wNy4zMS4wNy4yOS4wOGExLjM5LDEuMzksMCwwLDAsLjE5LjA2bC4yNS4wNy4yMi4wNy4xMSwwLC4yNS4wOC41My4xOC4yOC4xMS4xNy4wNy45MS4zNC4yNi4xMS4zMy4xMi40OS4xOS4yNy4wOWExMywxMywwLDAsMCwxLjYuNDhsLjEsMCwuNTQuMTFoMGE0LjE2LDQuMTYsMCwwLDAsLjU1LDBoLjI2bC4yMS0uMWEuMzUuMzUsMCwwLDEsLjItLjA1LjI0LjI0LDAsMCwxLC4xMywwLC4zMi4zMiwwLDAsMSwuMTUuMDguMTQuMTQsMCwwLDEsLjA3LjA4bC4wNi4xdjBzMCwuMDUsMCwuMDh2LjA1YS4zMS4zMSwwLDAsMSwwLC4xOC40MS40MSwwLDAsMSwwLC4wOWwwLDBzMCwwLDAsMCwwLDAsMCwwbC0uMTQuMDhhMS4yNSwxLjI1LDAsMCwxLS4yOS4wOWwtLjIxLDBoLS4yNWE0LjQ2LDQuNDYsMCwwLDEtLjg0LS4wOCw2LjcxLDYuNzEsMCwwLDEtMS0uMjNjLS4zNy0uMS0uNzgtLjIzLTEuMjMtLjM4cy0uOTEtLjM0LTEuNDItLjUzLTEuMTQtLjQ0LTEuNTgtLjYxbC0uMTYtLjA1YTkuNjMsOS42MywwLDAsMC0yLS41NUgyM2EuNDQuNDQsMCwwLDEtLjQyLS4zNlptLS40LDkuMDhBNS44Myw1LjgzLDAsMSwxLDI4LDQzLjU0LDUuODIsNS44MiwwLDAsMSwyMi4yMiwzNy43MVpNNDMsNDAuMDhhNS44Myw1LjgzLDAsMSwxLDUuODMtNS44M0E1Ljg0LDUuODQsMCwwLDEsNDMsNDAuMDhaTTIyLjA4LDU1YTIuOSwyLjksMCwwLDAsMi4zOC0xLjI4bC4xLS4xM2MtLjM3LS44Ny0uOS0yLjEtMS40Ni0zLjQ5LS40LTEtLjgxLTItMS4yMy0zLjExYTUuMSw1LjEsMCwwLDAtLjkyLDEuMSw3LjYzLDcuNjMsMCwwLDAtLjksMi40NUE3LjE2LDcuMTYsMCwwLDAsMjAsNTMuMWEzLjIzLDMuMjMsMCwwLDAsLjMxLjg5QTEuODcsMS44NywwLDAsMCwyMi4wOCw1NVpNMTYuNzEsNTEuOGMwLC40MS44OC43OSwyLjQ1LDEuMTNhNy40MSw3LjQxLDAsMCwxLC4wNi0yLjI4QzE3LjYyLDUxLDE2LjcxLDUxLjM4LDE2LjcxLDUxLjhabTQ2LjItMWExLjYzLDEuNjMsMCwwLDEtLjA5LjE5QTMuMzgsMy4zOCwwLDAsMSw2Miw1Mi4xM2E0LjY2LDQuNjYsMCwwLDEtMS44OCwxLjIxYzMuMDYtLjQzLDQuODgtMSw0Ljg4LTEuNTQsMC0uMzctLjc0LS43My0yLjA5LTFaIiBjbGFzcz0iY2xzLTIiLz48cGF0aCBkPSJNNjIuMDgsNTAuNTdhNC43NSw0Ljc1LDAsMCwwLTMuNTEtNi4wOGgwcy0uMjcsMC0uNjIsMGMtLjc0LDAtMS42NC4xNi0xLjc3LjktLjA4LjUyLjE0Ljc5LjYzLDEuM2E0Ljg4LDQuODgsMCwwLDEsMS41MiwzYzAsLjEyLDAsLjIzLjA1LjM1LjI3LDEuNjcuNzEsMi41MSwxLjMyLDIuNTEuMywwLC44Ni0uMTgsMS43OS0xYTIuNjYsMi42NiwwLDAsMCwuNjMtLjkyWk0yMywyMi42OWEyNC40NywyNC40NywwLDAsMSwwLTIuODhjLjE2LS43NSw0Ljg0LTYuMSw3LjkyLTYuNzNBNS44MSw1LjgxLDAsMCwxLDMxLjgsMTNjMy40NywwLDEwLjEyLDIuNDgsMTAuOTMsMi45MWEzLjU1LDMuNTUsMCwwLDEsLjE4LjU3LDMuNTksMy41OSwwLDAsMC0uODUsMS43LDMuNjMsMy42MywwLDAsMCwwLDEuOWMtMy41MSwxLjUzLTEyLjI1LDQuODMtMTguOCwzLjA2LjEzLjIxLjI3LjQzLjQuNjdBMTcuMTQsMTcuMTQsMCwwLDEsMjQuNzcsMjZjMi43MS40Myw4LjcuNTMsMTguMDktMy43LjE4LS41Ni40NS0xLjM2LjgyLTIuMjJhLjU2LjU2LDAsMCwxLS40OC4yMWMtLjM4LS4wOC0uNjQtLjk1LS40MS0ycy43Ny0xLjYzLDEuMTQtMS42M0g0NGMuMzcuMDguNjEuODkuNDIsMS44NywxLjIzLTIuMjgsMi42Mi0zLjQyLDQuMTMtMy40MmEyLjUxLDIuNTEsMCwwLDEsMS4zMy4zNGMuNjQtLjc3LDEtMS4zLDEtMS4zLS40Ny4wOC0xLjQ4LjIyLTEuNDguMjJhNS4yMyw1LjIzLDAsMCwwLDMuNDgtNS4xN2MwLC42NS0yLDIuMjEtMiwyLjIxYTMsMywwLDAsMC0uMjItMS4zMWMuMDguNzQtMi4yNiwyLjY2LTIuMjYsMi42NmEyLDIsMCwwLDAsLjA1LTFjLS4xMy43LTEuMTcsMS0xLjE3LDEsLjY0LS43OSwxLjg2LTQuOTIsMS01LjE3cy0yLjE4LDIuNy0yLjE4LDIuN2MtLjA1LS43LS40NC0uNy0uNDQtLjdhNS42Myw1LjYzLDAsMCwxLTEuNTYsMy45MWMtLjEzLS40NC0uODMtLjY1LS44My0uNjVhOC4zLDguMywwLDAsMSwwLDIuNWwwLDBjLS4zNy0uMzctNy44MS0zLjEzLTExLjQ3LTMuMTNhNS4zNCw1LjM0LDAsMCwwLTEuMDUuMDljLTEuOTMuNC00LjI0LDIuMzktNS40MywzLjU1LTEuNDQsMS4zNi0zLDMuMTYtMy4wOCwzLjhhMTguMTksMTguMTksMCwwLDAsMCwyLjEyQTUuMTYsNS4xNiwwLDAsMSwyMywyMi42OVptNC44NCwzNi4xNmMtLjgzLjE4LTMuMjYsMS41MS01LjM3LDEuOTJzLTMuOTQuNjEtNC41OC44Ni0xLjEzLjcuMTIsMS4xOCw3LjM0LjY0LDcuODksMC0uMzctLjkyLTEuNzEtLjkxYy0xLDAtLjgzLS4zMS0uODMtLjM1cy4wNi0uNDIsMS41Mi0uNjIsNy44OS0uODEsNy43Ny0xLjQ5LTQtLjc4LTQuODEtLjU5WiIgY2xhc3M9ImNscy0yIi8+PGVsbGlwc2UgdHJhbnNmb3JtPSJ0cmFuc2xhdGUoLTEzLjA2IDYuNSkgcm90YXRlKC0xMi4yOCkiIHJ5PSIwLjM3IiByeD0iMS4yNiIgY3k9IjYzLjkyIiBjeD0iMjMuNjUiIGNsYXNzPSJjbHMtMiIvPjxlbGxpcHNlIHRyYW5zZm9ybT0idHJhbnNsYXRlKC00Ljk4IDEuODQpIHJvdGF0ZSgtNC41NCkiIHJ5PSIwLjM2IiByeD0iMS4zMyIgY3k9IjYzLjc2IiBjeD0iMjAuNzMiIGNsYXNzPSJjbHMtMiIvPjxlbGxpcHNlIHRyYW5zZm9ybT0idHJhbnNsYXRlKC04LjQxIDMuMDcpIHJvdGF0ZSgtNy43NykiIHJ5PSIwLjI4IiByeD0iMC44OSIgY3k9IjYzLjQ3IiBjeD0iMTguMzkiIGNsYXNzPSJjbHMtMiIvPjxlbGxpcHNlIHRyYW5zZm9ybT0idHJhbnNsYXRlKC04LjkyIDMuMDUpIHJvdGF0ZSgtOC4yNykiIHJ5PSIwLjIyIiByeD0iMC44NiIgY3k9IjYzLjIiIGN4PSIxNi42NiIgY2xhc3M9ImNscy0yIi8+PGVsbGlwc2UgdHJhbnNmb3JtPSJ0cmFuc2xhdGUoLTguODUgMi45OSkgcm90YXRlKC04LjI3KSIgcnk9IjAuMjIiIHJ4PSIwLjg2IiBjeT0iNjIuNzEiIGN4PSIxNi4yOCIgY2xhc3M9ImNscy0yIi8+PGVsbGlwc2UgdHJhbnNmb3JtPSJtYXRyaXgoMC45OSwgLTAuMTQsIDAuMTQsIDAuOTksIC04Ljc3LCAyLjk3KSIgcnk9IjAuMiIgcng9IjAuNzQiIGN5PSI2Mi4xNiIgY3g9IjE2LjE4IiBjbGFzcz0iY2xzLTIiLz48cGF0aCBkPSJNNDAuNDgsNTkuNTJjLTEuNDUuMDctNC43Mi0uMS01LjE3LjY2czEuMzMsMSw0LjEyLjgxLDYuNzYtLjU1LDYuOTItMS40LS43My0uNjktLjgzLTEuMjMsMS0uNTUsMS4yLTEuMzYtMS40Ny0uNy0zLS43LTQsLjE0LTQuMjEuOTIsMS4xMy43OSwyLjExLDEsLjY4LjU0LjY4LjU0QzQyLjMxLDU5LjIzLDQxLjkyLDU5LjQ1LDQwLjQ4LDU5LjUyWiIgY2xhc3M9ImNscy0yIi8+PGVsbGlwc2Ugcnk9IjAuNDEiIHJ4PSIxLjI1IiBjeT0iNjEuNTkiIGN4PSIzNi42MiIgY2xhc3M9ImNscy0yIi8+PGVsbGlwc2Ugcnk9IjAuMzciIHJ4PSIwLjgzIiBjeT0iNjEuNTEiIGN4PSIzOS44NCIgY2xhc3M9ImNscy0yIi8+PGVsbGlwc2Ugcnk9IjAuMyIgcng9IjAuOTIiIGN5PSI2MS4yNCIgY3g9IjQyLjQ1IiBjbGFzcz0iY2xzLTIiLz48ZWxsaXBzZSByeT0iMC4zMiIgcng9IjAuNjciIGN5PSI2MC45IiBjeD0iNDQuNDUiIGNsYXNzPSJjbHMtMiIvPjxlbGxpcHNlIHJ5PSIwLjMxIiByeD0iMC42NyIgY3k9IjYwLjU0IiBjeD0iNDYuMTkiIGNsYXNzPSJjbHMtMiIvPjxwYXRoIGQ9Ik0yOC4wNiwzMi44OWE0Ljg1LDQuODUsMCwwLDAtMy4yNSwxLjI1LDEuMjksMS4yOSwwLDAsMC0uMTYuMTcsNC43OSw0Ljc5LDAsMCwwLTEuNDEsMy40LDQuODcsNC44NywwLDAsMCwuMjIsMS40NCw0LjA4LDQuMDgsMCwwLDAsLjM3Ljg2LDQuNDksNC40OSwwLDAsMCwuMzcuNTksNC44Miw0LjgyLDAsMSwwLDMuODYtNy43MVptLS40NCw4YTEuNTUsMS41NSwwLDAsMS0xLjA4LS40NC44LjgsMCwwLDEtLjE1LS4xNy40Ni40NiwwLDAsMS0uMDgtLjEzLDEsMSwwLDAsMS0uMTMtLjI5LjY0LjY0LDAsMCwxLDAtLjA3LDEuMzEsMS4zMSwwLDAsMS0uMDYtLjQxLDEuNTIsMS41MiwwLDAsMSwxLjUyLTEuNTJBMS41LDEuNSwwLDAsMSwyOS4wNiwzOWExLjM1LDEuMzUsMCwwLDEsLjA3LjQ2QTEuNTEsMS41MSwwLDAsMSwyNy42Miw0MC45M1ptMTctMTEuMjJhNCw0LDAsMCwwLS45My0uMjMsNC40OSw0LjQ5LDAsMCwwLS43My0uMDYsNC44OSw0Ljg5LDAsMCwwLTMuODcsMS45NCw0LjYsNC42LDAsMCwwLS4zNy42bC0uMjEuNDFjLS4wNi4xNC0uMTEuMjktLjE2LjQ0YTQuODcsNC44NywwLDAsMC0uMjIsMS40NCw0Ljc5LDQuNzksMCwwLDAsLjI5LDEuNjZjMCwuMDcuMDYuMTUuMDguMjJBNS44NSw1Ljg1LDAsMCwwLDM5LDM3YTEuNDEsMS40MSwwLDAsMCwuMTQuMThjLjA5LjEzLjIuMjUuMjkuMzZhMy4yNCwzLjI0LDAsMCwwLC41LjQ4LDQuODMsNC44MywwLDEsMCw0Ljc1LTguMjZabS0xLjcyLDcuNTRhMS40NSwxLjQ1LDAsMCwxLS41OS4xMiwxLjYzLDEuNjMsMCwwLDEtLjQ1LS4wNywxLjU0LDEuNTQsMCwwLDEtLjQ5LS4yNmwtLjE0LS4xMS0uMDktLjExLS4xNC0uMmEuNzYuNzYsMCwwLDEtLjA5LS4xOCwyLjI1LDIuMjUsMCwwLDEtLjA4LS4yNCwyLDIsMCwwLDEsMC0uMzUsMS4xNiwxLjE2LDAsMCwxLDAtLjMsMS41MSwxLjUxLDAsMCwxLDEtMS4xNSwxLjMzLDEuMzMsMCwwLDEsLjQ1LS4wNywxLjYzLDEuNjMsMCwwLDEsLjU5LjEyLDEuMDUsMS4wNSwwLDAsMSwuMjYuMTMuNTIuNTIsMCwwLDEsLjExLjEsMS41MSwxLjUxLDAsMCwxLS4zNywyLjU3Wk0zNyw0Ni42MWEyLjg1LDIuODUsMCwwLDEtLjEtLjMyLDguNzUsOC43NSwwLDAsMS0uMjMtMSwyLjUsMi41LDAsMCwwLS4zOC4xNSwxMi4zLDEyLjMsMCwwLDAtMS4xNi42NmgwYy4xLjQzLjM5LDEuMzcsMS4xNCwxLjM3YS44Mi44MiwwLDAsMCwuMywwYy4zNS0uMTEuNDYtLjQ0LjQ2LS44MVptMS0xLjU3LS40OSwwLS4yLDBjMCwuMjcuMTIuNjQuMjIsMXMuMzIuODQuNTYuOTRhMS4zNCwxLjM0LDAsMCwwLC4zMywwYy4zOSwwLC45LS4xNy44OC0xVjQ2YzAtLjM5LDAtLjY3LS4wOC0uODhoLS4zOGwtLjg0LDBaIiBjbGFzcz0iY2xzLTIiLz48cGF0aCBkPSJNMzkuNSw0MS40MXMtLjE0LDEuNjItMi40MiwyYTYuODcsNi44NywwLDAsMS0xLjEyLjA5LDIuMjgsMi4yOCwwLDAsMS0yLS43NXMtMi4xOS43NC0yLjM3LDJjLS4xMy45NC43OCwxLjQyLDEuNTgsMS40MmExLjYsMS42LDAsMCwwLC43My0uMTYsOS41OSw5LjU5LDAsMCwxLDMuNTgtMS42MSw0LjgsNC44LDAsMCwxLC41OCwwYy41NCwwLDEuMjgsMCwyLDBhNS43LDUuNywwLDAsMCwyLS4yNEExLjM1LDEuMzUsMCwwLDAsNDMsNDIuNTZDNDMsNDIuMTQsNDIsNDEuNDMsMzkuNSw0MS40MVoiIGNsYXNzPSJjbHMtMiIvPjwvZz48L2c+PC9zdmc+" vertex="1" parent="3tbVtcQ5HgRzrrxqIutd-64">
          <mxGeometry x="144" y="58" width="72" height="72" as="geometry" />
        </mxCell>
        <mxCell id="3tbVtcQ5HgRzrrxqIutd-38" value="" style="group;rotation=90;" vertex="1" connectable="0" parent="3tbVtcQ5HgRzrrxqIutd-64">
          <mxGeometry x="20" y="40" width="150" height="75" as="geometry" />
        </mxCell>
        <mxCell id="3tbVtcQ5HgRzrrxqIutd-28" value="" style="verticalLabelPosition=bottom;verticalAlign=top;html=1;shape=mxgraph.infographic.shadedCube;isoAngle=15;fillColor=#10739E;strokeColor=none;fontStyle=1;fontColor=#10739E;fontSize=12;shadow=0;rotation=90;" vertex="1" parent="3tbVtcQ5HgRzrrxqIutd-38">
          <mxGeometry x="8.125" y="-35.625" width="25" height="50" as="geometry" />
        </mxCell>
        <mxCell id="3tbVtcQ5HgRzrrxqIutd-29" value="" style="verticalLabelPosition=bottom;verticalAlign=top;html=1;shape=mxgraph.infographic.shadedCube;isoAngle=15;fillColor=#F2931E;strokeColor=none;fontStyle=1;fontColor=#F2931E;fontSize=12;shadow=0;rotation=90;" vertex="1" parent="3tbVtcQ5HgRzrrxqIutd-38">
          <mxGeometry x="14.375" y="-10.625" width="25" height="62.5" as="geometry" />
        </mxCell>
        <mxCell id="3tbVtcQ5HgRzrrxqIutd-30" value="" style="verticalLabelPosition=bottom;verticalAlign=top;html=1;shape=mxgraph.infographic.shadedCube;isoAngle=15;fillColor=#AE4132;strokeColor=none;fontStyle=1;fontColor=#AE4132;fontSize=12;shadow=0;rotation=90;" vertex="1" parent="3tbVtcQ5HgRzrrxqIutd-38">
          <mxGeometry x="11.25" y="23.75" width="25" height="56.25" as="geometry" />
        </mxCell>
        <mxCell id="3tbVtcQ5HgRzrrxqIutd-31" value="" style="verticalLabelPosition=bottom;verticalAlign=top;html=1;shape=mxgraph.infographic.shadedCube;isoAngle=15;fillColor=#23445D;strokeColor=none;fontStyle=1;fontColor=#23445D;fontSize=12;shadow=0;rotation=90;" vertex="1" parent="3tbVtcQ5HgRzrrxqIutd-38">
          <mxGeometry x="-1.25" y="67.5" width="25" height="31.25" as="geometry" />
        </mxCell>
        <mxCell id="3tbVtcQ5HgRzrrxqIutd-32" value="" style="verticalLabelPosition=bottom;verticalAlign=top;html=1;shape=mxgraph.infographic.shadedCube;isoAngle=15;fillColor=#12AAB5;strokeColor=none;fontStyle=1;fontColor=#12AAB5;fontSize=12;shadow=0;rotation=90;" vertex="1" parent="3tbVtcQ5HgRzrrxqIutd-38">
          <mxGeometry x="5" y="92.5" width="25" height="43.75" as="geometry" />
        </mxCell>
        <mxCell id="3tbVtcQ5HgRzrrxqIutd-33" value="" style="verticalLabelPosition=top;verticalAlign=bottom;html=1;shape=mxgraph.infographic.shadedCube;isoAngle=15;fillColor=#CCCCCC;strokeColor=none;fontStyle=1;fontColor=#10739E;fontSize=12;shadow=0;align=left;opacity=70;rotation=90;" vertex="1" parent="3tbVtcQ5HgRzrrxqIutd-38">
          <mxGeometry x="39.375" y="-29.375" width="25" height="37.5" as="geometry" />
        </mxCell>
        <mxCell id="3tbVtcQ5HgRzrrxqIutd-34" value="" style="verticalLabelPosition=top;verticalAlign=bottom;html=1;shape=mxgraph.infographic.shadedCube;isoAngle=15;fillColor=#CCCCCC;strokeColor=none;fontStyle=1;fontColor=#F19A19;fontSize=12;shadow=0;align=left;opacity=70;rotation=90;" vertex="1" parent="3tbVtcQ5HgRzrrxqIutd-38">
          <mxGeometry x="45.625" y="8.125" width="25" height="25" as="geometry" />
        </mxCell>
        <mxCell id="3tbVtcQ5HgRzrrxqIutd-35" value="" style="verticalLabelPosition=top;verticalAlign=bottom;html=1;shape=mxgraph.infographic.shadedCube;isoAngle=15;fillColor=#CCCCCC;strokeColor=none;fontStyle=1;fontColor=#D82A23;fontSize=12;shadow=0;align=left;opacity=70;rotation=90;" vertex="1" parent="3tbVtcQ5HgRzrrxqIutd-38">
          <mxGeometry x="42.5" y="36.25" width="25" height="31.25" as="geometry" />
        </mxCell>
        <mxCell id="3tbVtcQ5HgRzrrxqIutd-36" value="" style="verticalLabelPosition=top;verticalAlign=bottom;html=1;shape=mxgraph.infographic.shadedCube;isoAngle=15;fillColor=#CCCCCC;strokeColor=none;fontStyle=1;fontColor=#4A5768;fontSize=12;shadow=0;align=left;opacity=70;rotation=90;" vertex="1" parent="3tbVtcQ5HgRzrrxqIutd-38">
          <mxGeometry x="30" y="55" width="25" height="56.25" as="geometry" />
        </mxCell>
        <mxCell id="3tbVtcQ5HgRzrrxqIutd-37" value="" style="verticalLabelPosition=top;verticalAlign=bottom;html=1;shape=mxgraph.infographic.shadedCube;isoAngle=15;fillColor=#CCCCCC;strokeColor=none;fontStyle=1;fontColor=#15AA96;fontSize=12;shadow=0;align=left;opacity=70;rotation=90;" vertex="1" parent="3tbVtcQ5HgRzrrxqIutd-38">
          <mxGeometry x="36.25" y="92.5" width="25" height="43.75" as="geometry" />
        </mxCell>
        <mxCell id="3tbVtcQ5HgRzrrxqIutd-57" value="Jaeger Tracing platform" style="text;html=1;align=center;verticalAlign=middle;whiteSpace=wrap;rounded=0;" vertex="1" parent="3tbVtcQ5HgRzrrxqIutd-64">
          <mxGeometry x="85" width="210" height="30" as="geometry" />
        </mxCell>
        <mxCell id="3tbVtcQ5HgRzrrxqIutd-65" style="edgeStyle=orthogonalEdgeStyle;rounded=0;orthogonalLoop=1;jettySize=auto;html=1;exitX=1;exitY=0.5;exitDx=0;exitDy=0;entryX=0;entryY=0.5;entryDx=0;entryDy=0;strokeWidth=2;strokeColor=#47c796;" edge="1" parent="1" source="3tbVtcQ5HgRzrrxqIutd-2" target="3tbVtcQ5HgRzrrxqIutd-12">
          <mxGeometry relative="1" as="geometry" />
        </mxCell>
        <mxCell id="3tbVtcQ5HgRzrrxqIutd-67" value="solace/tracing" style="edgeLabel;html=1;align=center;verticalAlign=middle;resizable=0;points=[];" vertex="1" connectable="0" parent="3tbVtcQ5HgRzrrxqIutd-65">
          <mxGeometry x="-0.2275" relative="1" as="geometry">
            <mxPoint x="-2" y="-10" as="offset" />
          </mxGeometry>
        </mxCell>
        <mxCell id="3tbVtcQ5HgRzrrxqIutd-66" style="edgeStyle=orthogonalEdgeStyle;rounded=0;orthogonalLoop=1;jettySize=auto;html=1;exitX=1;exitY=0.5;exitDx=0;exitDy=0;strokeWidth=2;strokeColor=#47c796;" edge="1" parent="1" source="3tbVtcQ5HgRzrrxqIutd-12" target="3tbVtcQ5HgRzrrxqIutd-8">
          <mxGeometry relative="1" as="geometry" />
        </mxCell>
      </root>
    </mxGraphModel>
  </diagram>
</mxfile>
